<svg width="148" height="60" viewBox="0 0 148 60" fill="none" xmlns="http://www.w3.org/2000/svg">
<g id="Group 1">
<g id="Group">
<g id="Clip path group">
<mask id="mask0_307_967" style="mask-type:luminance" maskUnits="userSpaceOnUse" x="25" y="13" width="35" height="35">
<g id="SVGID_2_">
<path id="Vector" d="M33.7396 31.0197C33.6566 25.7574 37.3639 22.0461 42.5376 22.0461C47.739 22.0461 51.308 25.7297 51.2803 31.0197C51.2803 36.2266 47.656 39.8548 42.4546 39.8548C42.3993 39.8548 42.344 39.8548 42.261 39.8548C37.7236 39.8548 33.8226 36.6143 33.7396 31.0197ZM30.7793 18.0025C26.5186 22.0738 24.8862 27.1422 25.4119 32.9584C26.1866 41.295 33.0203 48.5514 42.0673 47.9421C45.3043 47.7205 48.1816 46.6404 50.5333 44.2862C50.727 44.0923 50.9483 43.8708 51.2803 43.5661C51.2803 44.5632 51.308 45.3663 51.2803 46.1695C51.2526 46.8619 51.5016 47.1389 52.221 47.1112C53.6873 47.0835 55.1537 47.0835 56.62 47.0835C57.2287 47.0835 57.8097 47.0835 58.4183 47.0835C59.8293 47.0835 59.8293 47.0835 59.8293 45.6987C59.8293 35.8665 59.8293 26.0067 59.8293 16.1745C59.8293 15.9806 59.8293 15.7868 59.8293 15.5652C59.8293 15.039 59.6357 14.7897 59.0823 14.7897C56.7583 14.8174 54.4343 14.8174 52.1103 14.7897C51.5293 14.7897 51.2803 15.0113 51.308 15.5929C51.3356 16.4238 51.308 17.2824 51.308 18.3625C50.4226 17.4208 49.6756 16.7284 48.8456 16.1468C46.6046 14.6235 43.8933 13.8757 41.1543 13.8757C37.3916 13.9034 33.6013 15.2882 30.7793 18.0025Z" fill="white"/>
</g>
</mask>
<g mask="url(#mask0_307_967)">
<path id="Vector_2" d="M17.6099 15.5098L58.197 6.56396L67.078 46.9451L26.4909 55.891L17.6099 15.5098Z" fill="url(#paint0_linear_307_967)"/>
</g>
</g>
</g>
<g id="Group_2">
<g id="Clip path group_2">
<mask id="mask1_307_967" style="mask-type:luminance" maskUnits="userSpaceOnUse" x="72" y="13" width="34" height="36">
<g id="SVGID_5_">
<path id="Vector_3" d="M82.433 27.9178C81.4647 27.9178 81.3817 27.807 81.7137 26.893C82.848 23.7633 85.1444 22.1293 88.3814 21.6307C92.3377 21.0214 96.0727 23.2094 97.2347 26.9761C97.5114 27.8624 97.4561 27.9455 96.5154 27.9455C94.1637 27.9455 91.8121 27.9455 89.4881 27.9455C88.1047 27.9455 86.7491 27.9455 85.3657 27.9455C84.3974 27.9178 83.4014 27.9178 82.433 27.9178ZM88.4091 13.9866C82.4884 14.402 77.8404 17.0054 74.88 22.2677C72.8327 25.8959 72.2794 29.8288 72.9157 33.9555C73.635 38.3869 75.6824 42.0151 79.3344 44.674C83.18 47.4713 87.6067 48.3022 92.2271 47.9144C96.9027 47.5267 100.831 45.6157 103.792 41.8767C104.4 41.1012 104.4 41.0181 103.598 40.5472C101.91 39.5779 100.195 38.6085 98.5351 37.6114C97.8987 37.2237 97.4561 37.1683 96.9581 37.8053C96.6261 38.2208 96.1834 38.5531 95.7131 38.8301C92.7804 40.658 89.6817 40.7411 86.4724 39.7164C84.2867 39.024 82.7374 37.5561 81.852 35.3957C81.5477 34.7033 81.7137 34.5095 82.4607 34.5095C86.1681 34.5372 89.8754 34.5095 93.5827 34.5095C94.7171 34.5095 95.8237 34.5095 96.9581 34.5095C99.4757 34.5095 102.021 34.5095 104.539 34.5095C105.645 34.5095 105.673 34.4264 105.839 33.3185C106.033 31.7398 106.06 30.1612 105.839 28.5825C105.23 24.2896 103.487 20.606 100.167 17.7809C97.1517 15.2052 93.6381 14.0143 89.7924 14.0143C89.3497 13.9312 88.8794 13.9589 88.4091 13.9866Z" fill="white"/>
</g>
</mask>
<g mask="url(#mask1_307_967)">
<path id="Vector_4" d="M65.0859 15.51L104.511 6.84106L113.254 46.6959L73.8286 55.3649L65.0859 15.51Z" fill="url(#paint1_linear_307_967)"/>
</g>
</g>
</g>
<g id="Group_3">
<g id="Clip path group_3">
<mask id="mask2_307_967" style="mask-type:luminance" maskUnits="userSpaceOnUse" x="118" y="14" width="30" height="46">
<g id="SVGID_8_">
<path id="Vector_5" d="M121.775 14.7898C120.862 14.8175 119.949 14.8175 119.036 14.8175C118.676 14.8175 118.372 15.1221 118.372 15.4822V24.8158C118.372 25.6744 118.538 26.5607 118.898 27.3639C121.415 33.3186 123.933 39.2733 126.451 45.228C126.617 45.588 126.783 45.9481 126.617 46.3635C126.119 47.6929 125.455 48.9393 124.459 49.9917C123.048 51.4319 121.249 51.9581 119.313 52.0135C118.787 52.0412 118.372 52.0966 118.372 52.8167C118.4 54.9493 118.4 57.0819 118.372 59.1869C118.372 59.6854 118.566 59.8793 119.064 59.9624C119.755 60.0731 120.419 59.907 121.083 59.8793C124.016 59.7408 126.672 58.7714 128.996 56.9712C131.707 54.8386 133.506 52.0135 134.723 48.8839C136.383 44.6463 137.905 40.3257 139.454 36.0605C141.916 29.3303 144.351 22.6001 146.813 15.8423C147.145 14.9006 147.118 14.8452 146.094 14.8452C145.347 14.8452 144.6 14.8452 143.853 14.8452C142.276 14.8452 140.699 14.8452 139.122 14.8175C138.375 14.7898 138.015 15.0391 137.794 15.7592C136.079 21.0214 134.363 26.256 132.62 31.4906C132.122 32.9585 131.652 34.4264 131.154 35.8943C131.071 35.8943 131.071 35.8943 130.96 35.8943C130.269 34.1495 129.605 32.4046 128.941 30.6597C127.032 25.7575 125.123 20.8276 123.269 15.8976C122.992 15.1775 122.688 14.7898 121.858 14.7898C121.83 14.7898 121.803 14.7898 121.775 14.7898Z" fill="white"/>
</g>
</mask>
<g mask="url(#mask2_307_967)">
<path id="Vector_6" d="M108.882 16.8671L145.845 8.75208L156.663 57.9683L119.7 66.0833L108.882 16.8671Z" fill="url(#paint2_linear_307_967)"/>
</g>
</g>
</g>
<g id="Group_4">
<g id="Clip path group_4">
<mask id="mask3_307_967" style="mask-type:luminance" maskUnits="userSpaceOnUse" x="0" y="13" width="28" height="35">
<g id="SVGID_11_">
<path id="Vector_7" d="M9.89083 15.3991C4.13615 18.0579 0.899143 22.5724 0.152141 28.8594C-0.511861 34.371 0.982142 39.2455 4.93849 43.1507C9.36516 47.499 14.7878 48.8007 20.7915 47.5267C23.3922 46.9728 25.6332 45.9203 27.5699 44.3693C27.8742 44.1201 27.9295 43.6769 27.6529 43.4C26.1589 41.7659 24.9692 39.8271 24.1669 37.6945C23.9455 37.1406 23.2262 36.9467 22.7835 37.3899C20.5979 39.5225 17.1948 39.9933 14.3728 39.2178C10.3058 38.0823 7.89883 33.9278 8.5905 29.4964C9.11616 26.0067 11.4955 23.3202 14.8985 22.517C17.9419 21.8246 20.7639 22.6001 22.7559 24.5942C23.1709 25.0097 23.8902 24.8712 24.1115 24.3172C24.8862 22.24 26.0482 20.329 27.6529 18.5564C27.9019 18.2795 27.8742 17.864 27.5975 17.6148C24.6925 15.2329 21.1235 14.0696 17.0288 13.9589C16.8628 13.9589 16.7245 13.9589 16.5585 13.9589C14.2345 13.9312 11.9935 14.4297 9.89083 15.3991Z" fill="white"/>
</g>
</mask>
<g mask="url(#mask3_307_967)">
<path id="Vector_8" d="M-7.78821 15.5375L26.6015 7.97644L35.2059 47.1943L0.816147 54.7554L-7.78821 15.5375Z" fill="url(#paint3_linear_307_967)"/>
</g>
</g>
</g>
<g id="Group_5">
<g id="Clip path group_5">
<mask id="mask4_307_967" style="mask-type:luminance" maskUnits="userSpaceOnUse" x="107" y="0" width="10" height="48">
<g id="SVGID_14_">
<path id="Vector_9" d="M107.748 1.10785C107.776 16.1192 107.776 31.1029 107.748 46.1142C107.748 46.9174 108.052 47.139 108.799 47.1113C110.238 47.0836 111.704 47.0836 113.143 47.0836C113.752 47.0836 114.388 47.0836 114.997 47.0836C116.269 47.0836 116.269 47.0836 116.269 45.8096C116.269 38.4147 116.269 31.0198 116.269 23.5972C116.269 16.1746 116.269 8.75201 116.269 1.30172C116.269 0.0553924 116.242 0.0276962 114.969 0.0276962C114.333 0.0276962 113.669 0.0276962 113.032 0.0276962C111.649 0.0276962 110.238 0.0276962 108.855 0C108.827 0 108.827 0 108.799 0C108.08 0.0553925 107.748 0.304659 107.748 1.10785Z" fill="white"/>
</g>
</mask>
<g mask="url(#mask4_307_967)">
<path id="Vector_10" d="M97.8987 2.21581L115.882 -1.74475L126.146 44.9511L108.135 48.9117L97.8987 2.21581Z" fill="url(#paint4_linear_307_967)"/>
</g>
</g>
</g>
<g id="Group_6">
<g id="Clip path group_6">
<mask id="mask5_307_967" style="mask-type:luminance" maskUnits="userSpaceOnUse" x="61" y="14" width="20" height="34">
<g id="SVGID_17_">
<path id="Vector_11" d="M79.0577 14.2081C75.378 14.5682 72.39 16.0638 70.5917 19.4704C70.564 19.5258 70.481 19.5812 70.3427 19.7197C70.3427 18.2518 70.3427 16.8947 70.3427 15.5652C70.3427 15.039 70.149 14.7897 69.5957 14.8174C67.2717 14.8174 64.9477 14.8174 62.6236 14.8174C62.0426 14.8174 61.8766 15.0667 61.8766 15.5929C61.9043 16.2576 61.8766 16.8946 61.8766 17.5594C61.8766 27.0038 61.8766 36.4482 61.8766 45.8649C61.8766 47.0835 61.8767 47.0835 63.094 47.0835C63.758 47.0835 64.422 47.0835 65.086 47.0835C66.497 47.0835 67.8803 47.0835 69.2913 47.1112C70.066 47.1389 70.315 46.862 70.315 46.0865C70.2873 42.5414 70.2873 38.9962 70.2873 35.4511C70.2873 33.734 70.232 32.0445 70.4257 30.355C70.6747 28.0562 71.3387 20.4398 79.9707 15.3714C79.9984 15.3714 80.026 15.3437 80.0537 15.316C80.109 15.2883 80.109 15.2052 80.109 15.2052C80.109 14.402 80.026 14.1804 79.445 14.1804C79.362 14.1804 79.2237 14.2081 79.0577 14.2081Z" fill="white"/>
</g>
</mask>
<g mask="url(#mask5_307_967)">
<path id="Vector_12" d="M54.9877 15.7036L79.3067 10.3583L87.0534 45.6156L62.7344 50.961L54.9877 15.7036Z" fill="url(#paint5_linear_307_967)"/>
</g>
</g>
</g>
</g>
<defs>
<linearGradient id="paint0_linear_307_967" x1="-45.2934" y1="50.5076" x2="201.287" y2="-3.63652" gradientUnits="userSpaceOnUse">
<stop stop-color="#00C692"/>
<stop offset="1" stop-color="#0058C1"/>
</linearGradient>
<linearGradient id="paint1_linear_307_967" x1="-43.1705" y1="60.2001" x2="203.41" y2="6.056" gradientUnits="userSpaceOnUse">
<stop stop-color="#00C692"/>
<stop offset="1" stop-color="#0058C1"/>
</linearGradient>
<linearGradient id="paint2_linear_307_967" x1="-39.825" y1="75.3957" x2="206.755" y2="21.2516" gradientUnits="userSpaceOnUse">
<stop stop-color="#00C692"/>
<stop offset="1" stop-color="#0058C1"/>
</linearGradient>
<linearGradient id="paint3_linear_307_967" x1="-46.5857" y1="44.6051" x2="199.994" y2="-9.53899" gradientUnits="userSpaceOnUse">
<stop stop-color="#00C692"/>
<stop offset="1" stop-color="#0058C1"/>
</linearGradient>
<linearGradient id="paint4_linear_307_967" x1="-43.6784" y1="57.8174" x2="202.902" y2="3.67332" gradientUnits="userSpaceOnUse">
<stop stop-color="#00C692"/>
<stop offset="1" stop-color="#0058C1"/>
</linearGradient>
<linearGradient id="paint5_linear_307_967" x1="-44.0982" y1="55.9685" x2="202.482" y2="1.8244" gradientUnits="userSpaceOnUse">
<stop stop-color="#00C692"/>
<stop offset="1" stop-color="#0058C1"/>
</linearGradient>
</defs>
</svg>
