<svg width="228" height="30" viewBox="0 0 228 30" fill="none" xmlns="http://www.w3.org/2000/svg">
<path d="M0.6 2.864C0.6 2.40533 0.706667 2 0.92 1.648C1.12267 1.28533 1.40533 1.00267 1.768 0.8C2.12 0.586666 2.52533 0.48 2.984 0.48H12.008C12.4667 0.48 12.872 0.586666 13.224 0.8C13.5867 1.00267 13.8693 1.28533 14.072 1.648C14.2853 2 14.392 2.40533 14.392 2.864V2.896C14.392 3.35467 14.2853 3.76533 14.072 4.128C13.8693 4.48 13.5867 4.76267 13.224 4.976C12.872 5.17867 12.4667 5.28 12.008 5.28H2.984C2.52533 5.28 2.12 5.17867 1.768 4.976C1.40533 4.76267 1.12267 4.48 0.92 4.128C0.706667 3.76533 0.6 3.35467 0.6 2.896V2.864ZM9.58437 2.864C9.58437 2.40533 9.69104 2 9.90437 1.648C10.107 1.28533 10.3897 1.00267 10.7524 0.8C11.1044 0.586666 11.5097 0.48 11.9684 0.48H20.9924C21.451 0.48 21.8564 0.586666 22.2084 0.8C22.571 1.00267 22.8537 1.28533 23.0564 1.648C23.2697 2 23.3764 2.40533 23.3764 2.864V2.896C23.3764 3.35467 23.2697 3.76533 23.0564 4.128C22.8537 4.48 22.571 4.76267 22.2084 4.976C21.8564 5.17867 21.451 5.28 20.9924 5.28H11.9684C11.5097 5.28 11.1044 5.17867 10.7524 4.976C10.3897 4.76267 10.107 4.48 9.90437 4.128C9.69104 3.76533 9.58437 3.35467 9.58437 2.896V2.864ZM18.5687 2.864C18.5687 2.40533 18.6754 2 18.8887 1.648C19.0914 1.28533 19.3741 1.00267 19.7367 0.8C20.0887 0.586666 20.4941 0.48 20.9527 0.48H29.9768C30.4354 0.48 30.8408 0.586666 31.1928 0.8C31.5554 1.00267 31.8381 1.28533 32.0408 1.648C32.2541 2 32.3608 2.40533 32.3608 2.864V2.896C32.3608 3.35467 32.2541 3.76533 32.0408 4.128C31.8381 4.48 31.5554 4.76267 31.1928 4.976C30.8408 5.17867 30.4354 5.28 29.9768 5.28H20.9527C20.4941 5.28 20.0887 5.17867 19.7367 4.976C19.3741 4.76267 19.0914 4.48 18.8887 4.128C18.6754 3.76533 18.5687 3.35467 18.5687 2.896V2.864ZM27.5531 2.864C27.5531 2.40533 27.6598 2 27.8731 1.648C28.0758 1.28533 28.3585 1.00267 28.7211 0.8C29.0731 0.586666 29.4785 0.48 29.9371 0.48H38.9611C39.4198 0.48 39.8251 0.586666 40.1771 0.8C40.5398 1.00267 40.8225 1.28533 41.0251 1.648C41.2385 2 41.3451 2.40533 41.3451 2.864V2.896C41.3451 3.35467 41.2385 3.76533 41.0251 4.128C40.8225 4.48 40.5398 4.76267 40.1771 4.976C39.8251 5.17867 39.4198 5.28 38.9611 5.28H29.9371C29.4785 5.28 29.0731 5.17867 28.7211 4.976C28.3585 4.76267 28.0758 4.48 27.8731 4.128C27.6598 3.76533 27.5531 3.35467 27.5531 2.896V2.864ZM36.5375 2.864C36.5375 2.40533 36.6442 2 36.8575 1.648C37.0602 1.28533 37.3428 1.00267 37.7055 0.8C38.0575 0.586666 38.4628 0.48 38.9215 0.48H47.9455C48.4042 0.48 48.8095 0.586666 49.1615 0.8C49.5242 1.00267 49.8068 1.28533 50.0095 1.648C50.2228 2 50.3295 2.40533 50.3295 2.864V2.896C50.3295 3.35467 50.2228 3.76533 50.0095 4.128C49.8068 4.48 49.5242 4.76267 49.1615 4.976C48.8095 5.17867 48.4042 5.28 47.9455 5.28H38.9215C38.4628 5.28 38.0575 5.17867 37.7055 4.976C37.3428 4.76267 37.0602 4.48 36.8575 4.128C36.6442 3.76533 36.5375 3.35467 36.5375 2.896V2.864ZM45.5219 2.864C45.5219 2.40533 45.6285 2 45.8419 1.648C46.0445 1.28533 46.3272 1.00267 46.6899 0.8C47.0419 0.586666 47.4472 0.48 47.9059 0.48H56.9299C57.3885 0.48 57.7939 0.586666 58.1459 0.8C58.5085 1.00267 58.7912 1.28533 58.9939 1.648C59.2072 2 59.3139 2.40533 59.3139 2.864V2.896C59.3139 3.35467 59.2072 3.76533 58.9939 4.128C58.7912 4.48 58.5085 4.76267 58.1459 4.976C57.7939 5.17867 57.3885 5.28 56.9299 5.28H47.9059C47.4472 5.28 47.0419 5.17867 46.6899 4.976C46.3272 4.76267 46.0445 4.48 45.8419 4.128C45.6285 3.76533 45.5219 3.35467 45.5219 2.896V2.864ZM64.1 2.864C64.1 2.40533 64.2067 2 64.42 1.648C64.6227 1.28533 64.9053 1.00267 65.268 0.8C65.62 0.586666 66.0253 0.48 66.484 0.48H75.508C75.9667 0.48 76.372 0.586666 76.724 0.8C77.0867 1.00267 77.3693 1.28533 77.572 1.648C77.7853 2 77.892 2.40533 77.892 2.864V2.896C77.892 3.35467 77.7853 3.76533 77.572 4.128C77.3693 4.48 77.0867 4.76267 76.724 4.976C76.372 5.17867 75.9667 5.28 75.508 5.28H66.484C66.0253 5.28 65.62 5.17867 65.268 4.976C64.9053 4.76267 64.6227 4.48 64.42 4.128C64.2067 3.76533 64.1 3.35467 64.1 2.896V2.864ZM73.0844 2.864C73.0844 2.40533 73.191 2 73.4044 1.648C73.607 1.28533 73.8897 1.00267 74.2524 0.8C74.6044 0.586666 75.0097 0.48 75.4684 0.48H84.4924C84.951 0.48 85.3564 0.586666 85.7084 0.8C86.071 1.00267 86.3537 1.28533 86.5564 1.648C86.7697 2 86.8764 2.40533 86.8764 2.864V2.896C86.8764 3.35467 86.7697 3.76533 86.5564 4.128C86.3537 4.48 86.071 4.76267 85.7084 4.976C85.3564 5.17867 84.951 5.28 84.4924 5.28H75.4684C75.0097 5.28 74.6044 5.17867 74.2524 4.976C73.8897 4.76267 73.607 4.48 73.4044 4.128C73.191 3.76533 73.0844 3.35467 73.0844 2.896V2.864ZM82.0687 2.864C82.0687 2.40533 82.1754 2 82.3887 1.648C82.5914 1.28533 82.8741 1.00267 83.2367 0.8C83.5887 0.586666 83.9941 0.48 84.4527 0.48H93.4768C93.9354 0.48 94.3408 0.586666 94.6928 0.8C95.0554 1.00267 95.3381 1.28533 95.5408 1.648C95.7541 2 95.8608 2.40533 95.8608 2.864V2.896C95.8608 3.35467 95.7541 3.76533 95.5408 4.128C95.3381 4.48 95.0554 4.76267 94.6928 4.976C94.3408 5.17867 93.9354 5.28 93.4768 5.28H84.4527C83.9941 5.28 83.5887 5.17867 83.2367 4.976C82.8741 4.76267 82.5914 4.48 82.3887 4.128C82.1754 3.76533 82.0687 3.35467 82.0687 2.896V2.864ZM91.0531 2.864C91.0531 2.40533 91.1598 2 91.3731 1.648C91.5758 1.28533 91.8585 1.00267 92.2211 0.8C92.5731 0.586666 92.9785 0.48 93.4371 0.48H102.461C102.92 0.48 103.325 0.586666 103.677 0.8C104.04 1.00267 104.322 1.28533 104.525 1.648C104.738 2 104.845 2.40533 104.845 2.864V2.896C104.845 3.35467 104.738 3.76533 104.525 4.128C104.322 4.48 104.04 4.76267 103.677 4.976C103.325 5.17867 102.92 5.28 102.461 5.28H93.4371C92.9785 5.28 92.5731 5.17867 92.2211 4.976C91.8585 4.76267 91.5758 4.48 91.3731 4.128C91.1598 3.76533 91.0531 3.35467 91.0531 2.896V2.864ZM100.037 2.864C100.037 2.40533 100.144 2 100.357 1.648C100.56 1.28533 100.843 1.00267 101.205 0.8C101.557 0.586666 101.963 0.48 102.421 0.48H107.03C107.488 0.48 107.894 0.586666 108.246 0.8C108.608 1.00267 108.891 1.28533 109.094 1.648C109.307 2 109.414 2.40533 109.414 2.864V2.896C109.414 3.35467 109.307 3.76533 109.094 4.128C108.891 4.48 108.608 4.76267 108.246 4.976C107.894 5.17867 107.488 5.28 107.03 5.28H102.421C101.963 5.28 101.557 5.17867 101.205 4.976C100.843 4.76267 100.56 4.48 100.357 4.128C100.144 3.76533 100.037 3.35467 100.037 2.896V2.864ZM104.616 2.864C104.616 2.40533 104.722 2 104.936 1.648C105.138 1.28533 105.421 1.00267 105.784 0.8C106.136 0.586666 106.541 0.48 107 0.48H116.024C116.482 0.48 116.888 0.586666 117.24 0.8C117.602 1.00267 117.885 1.28533 118.088 1.648C118.301 2 118.408 2.40533 118.408 2.864V2.896C118.408 3.35467 118.301 3.76533 118.088 4.128C117.885 4.48 117.602 4.76267 117.24 4.976C116.888 5.17867 116.482 5.28 116.024 5.28H107C106.541 5.28 106.136 5.17867 105.784 4.976C105.421 4.76267 105.138 4.48 104.936 4.128C104.722 3.76533 104.616 3.35467 104.616 2.896V2.864ZM113.6 2.864C113.6 2.40533 113.707 2 113.92 1.648C114.123 1.28533 114.405 1.00267 114.768 0.8C115.12 0.586666 115.525 0.48 115.984 0.48H125.008C125.467 0.48 125.872 0.586666 126.224 0.8C126.587 1.00267 126.869 1.28533 127.072 1.648C127.285 2 127.392 2.40533 127.392 2.864V2.896C127.392 3.35467 127.285 3.76533 127.072 4.128C126.869 4.48 126.587 4.76267 126.224 4.976C125.872 5.17867 125.467 5.28 125.008 5.28H115.984C115.525 5.28 115.12 5.17867 114.768 4.976C114.405 4.76267 114.123 4.48 113.92 4.128C113.707 3.76533 113.6 3.35467 113.6 2.896V2.864ZM122.584 2.864C122.584 2.40533 122.691 2 122.904 1.648C123.107 1.28533 123.39 1.00267 123.752 0.8C124.104 0.586666 124.51 0.48 124.968 0.48H133.992C134.451 0.48 134.856 0.586666 135.208 0.8C135.571 1.00267 135.854 1.28533 136.056 1.648C136.27 2 136.376 2.40533 136.376 2.864V2.896C136.376 3.35467 136.27 3.76533 136.056 4.128C135.854 4.48 135.571 4.76267 135.208 4.976C134.856 5.17867 134.451 5.28 133.992 5.28H124.968C124.51 5.28 124.104 5.17867 123.752 4.976C123.39 4.76267 123.107 4.48 122.904 4.128C122.691 3.76533 122.584 3.35467 122.584 2.896V2.864ZM131.569 2.864C131.569 2.40533 131.675 2 131.889 1.648C132.091 1.28533 132.374 1.00267 132.737 0.8C133.089 0.586666 133.494 0.48 133.953 0.48H138.561C139.019 0.48 139.425 0.586666 139.777 0.8C140.139 1.00267 140.422 1.28533 140.625 1.648C140.838 2 140.945 2.40533 140.945 2.864V2.896C140.945 3.35467 140.838 3.76533 140.625 4.128C140.422 4.48 140.139 4.76267 139.777 4.976C139.425 5.17867 139.019 5.28 138.561 5.28H133.953C133.494 5.28 133.089 5.17867 132.737 4.976C132.374 4.76267 132.091 4.48 131.889 4.128C131.675 3.76533 131.569 3.35467 131.569 2.896V2.864ZM145.741 2.864C145.741 2.40533 145.847 2 146.061 1.648C146.263 1.28533 146.546 1.00267 146.909 0.8C147.261 0.586666 147.666 0.48 148.125 0.48H157.149C157.607 0.48 158.013 0.586666 158.365 0.8C158.727 1.00267 159.01 1.28533 159.213 1.648C159.426 2 159.533 2.40533 159.533 2.864V2.896C159.533 3.35467 159.426 3.76533 159.213 4.128C159.01 4.48 158.727 4.76267 158.365 4.976C158.013 5.17867 157.607 5.28 157.149 5.28H148.125C147.666 5.28 147.261 5.17867 146.909 4.976C146.546 4.76267 146.263 4.48 146.061 4.128C145.847 3.76533 145.741 3.35467 145.741 2.896V2.864ZM154.725 2.864C154.725 2.40533 154.832 2 155.045 1.648C155.248 1.28533 155.53 1.00267 155.893 0.8C156.245 0.586666 156.65 0.48 157.109 0.48H166.133C166.592 0.48 166.997 0.586666 167.349 0.8C167.712 1.00267 167.994 1.28533 168.197 1.648C168.41 2 168.517 2.40533 168.517 2.864V2.896C168.517 3.35467 168.41 3.76533 168.197 4.128C167.994 4.48 167.712 4.76267 167.349 4.976C166.997 5.17867 166.592 5.28 166.133 5.28H157.109C156.65 5.28 156.245 5.17867 155.893 4.976C155.53 4.76267 155.248 4.48 155.045 4.128C154.832 3.76533 154.725 3.35467 154.725 2.896V2.864ZM163.709 2.864C163.709 2.40533 163.816 2 164.029 1.648C164.232 1.28533 164.515 1.00267 164.877 0.8C165.229 0.586666 165.635 0.48 166.093 0.48H170.701C171.16 0.48 171.565 0.586666 171.917 0.8C172.28 1.00267 172.563 1.28533 172.765 1.648C172.979 2 173.085 2.40533 173.085 2.864V2.896C173.085 3.35467 172.979 3.76533 172.765 4.128C172.563 4.48 172.28 4.76267 171.917 4.976C171.565 5.17867 171.16 5.28 170.701 5.28H166.093C165.635 5.28 165.229 5.17867 164.877 4.976C164.515 4.76267 164.232 4.48 164.029 4.128C163.816 3.76533 163.709 3.35467 163.709 2.896V2.864ZM0.6 26.864C0.6 26.4053 0.706667 26 0.92 25.648C1.12267 25.2853 1.40533 25.0027 1.768 24.8C2.12 24.5867 2.52533 24.48 2.984 24.48H12.008C12.4667 24.48 12.872 24.5867 13.224 24.8C13.5867 25.0027 13.8693 25.2853 14.072 25.648C14.2853 26 14.392 26.4053 14.392 26.864V26.896C14.392 27.3547 14.2853 27.7653 14.072 28.128C13.8693 28.48 13.5867 28.7627 13.224 28.976C12.872 29.1787 12.4667 29.28 12.008 29.28H2.984C2.52533 29.28 2.12 29.1787 1.768 28.976C1.40533 28.7627 1.12267 28.48 0.92 28.128C0.706667 27.7653 0.6 27.3547 0.6 26.896V26.864ZM9.58437 26.864C9.58437 26.4053 9.69104 26 9.90437 25.648C10.107 25.2853 10.3897 25.0027 10.7524 24.8C11.1044 24.5867 11.5097 24.48 11.9684 24.48H16.5764C17.035 24.48 17.4404 24.5867 17.7924 24.8C18.155 25.0027 18.4377 25.2853 18.6404 25.648C18.8537 26 18.9604 26.4053 18.9604 26.864V26.896C18.9604 27.3547 18.8537 27.7653 18.6404 28.128C18.4377 28.48 18.155 28.7627 17.7924 28.976C17.4404 29.1787 17.035 29.28 16.5764 29.28H11.9684C11.5097 29.28 11.1044 29.1787 10.7524 28.976C10.3897 28.7627 10.107 28.48 9.90437 28.128C9.69104 27.7653 9.58437 27.3547 9.58437 26.896V26.864ZM14.1625 26.864C14.1625 26.4053 14.2692 26 14.4825 25.648C14.6852 25.2853 14.9678 25.0027 15.3305 24.8C15.6825 24.5867 16.0878 24.48 16.5465 24.48H25.5705C26.0292 24.48 26.4345 24.5867 26.7865 24.8C27.1492 25.0027 27.4318 25.2853 27.6345 25.648C27.8478 26 27.9545 26.4053 27.9545 26.864V26.896C27.9545 27.3547 27.8478 27.7653 27.6345 28.128C27.4318 28.48 27.1492 28.7627 26.7865 28.976C26.4345 29.1787 26.0292 29.28 25.5705 29.28H16.5465C16.0878 29.28 15.6825 29.1787 15.3305 28.976C14.9678 28.7627 14.6852 28.48 14.4825 28.128C14.2692 27.7653 14.1625 27.3547 14.1625 26.896V26.864ZM23.1469 26.864C23.1469 26.4053 23.2535 26 23.4669 25.648C23.6695 25.2853 23.9522 25.0027 24.3149 24.8C24.6669 24.5867 25.0722 24.48 25.5309 24.48H34.5549C35.0135 24.48 35.4189 24.5867 35.7709 24.8C36.1335 25.0027 36.4162 25.2853 36.6189 25.648C36.8322 26 36.9389 26.4053 36.9389 26.864V26.896C36.9389 27.3547 36.8322 27.7653 36.6189 28.128C36.4162 28.48 36.1335 28.7627 35.7709 28.976C35.4189 29.1787 35.0135 29.28 34.5549 29.28H25.5309C25.0722 29.28 24.6669 29.1787 24.3149 28.976C23.9522 28.7627 23.6695 28.48 23.4669 28.128C23.2535 27.7653 23.1469 27.3547 23.1469 26.896V26.864ZM32.1312 26.864C32.1312 26.4053 32.2379 26 32.4512 25.648C32.6539 25.2853 32.9366 25.0027 33.2992 24.8C33.6512 24.5867 34.0566 24.48 34.5152 24.48H43.5393C43.9979 24.48 44.4033 24.5867 44.7553 24.8C45.1179 25.0027 45.4006 25.2853 45.6033 25.648C45.8166 26 45.9233 26.4053 45.9233 26.864V26.896C45.9233 27.3547 45.8166 27.7653 45.6033 28.128C45.4006 28.48 45.1179 28.7627 44.7553 28.976C44.4033 29.1787 43.9979 29.28 43.5393 29.28H34.5152C34.0566 29.28 33.6512 29.1787 33.2992 28.976C32.9366 28.7627 32.6539 28.48 32.4512 28.128C32.2379 27.7653 32.1312 27.3547 32.1312 26.896V26.864ZM41.1156 26.864C41.1156 26.4053 41.2223 26 41.4356 25.648C41.6383 25.2853 41.921 25.0027 42.2836 24.8C42.6356 24.5867 43.041 24.48 43.4996 24.48H52.5236C52.9823 24.48 53.3876 24.5867 53.7396 24.8C54.1023 25.0027 54.385 25.2853 54.5876 25.648C54.801 26 54.9076 26.4053 54.9076 26.864V26.896C54.9076 27.3547 54.801 27.7653 54.5876 28.128C54.385 28.48 54.1023 28.7627 53.7396 28.976C53.3876 29.1787 52.9823 29.28 52.5236 29.28H43.4996C43.041 29.28 42.6356 29.1787 42.2836 28.976C41.921 28.7627 41.6383 28.48 41.4356 28.128C41.2223 27.7653 41.1156 27.3547 41.1156 26.896V26.864ZM50.1 26.864C50.1 26.4053 50.2067 26 50.42 25.648C50.6227 25.2853 50.9053 25.0027 51.268 24.8C51.62 24.5867 52.0253 24.48 52.484 24.48H61.508C61.9667 24.48 62.372 24.5867 62.724 24.8C63.0867 25.0027 63.3693 25.2853 63.572 25.648C63.7853 26 63.892 26.4053 63.892 26.864V26.896C63.892 27.3547 63.7853 27.7653 63.572 28.128C63.3693 28.48 63.0867 28.7627 62.724 28.976C62.372 29.1787 61.9667 29.28 61.508 29.28H52.484C52.0253 29.28 51.62 29.1787 51.268 28.976C50.9053 28.7627 50.6227 28.48 50.42 28.128C50.2067 27.7653 50.1 27.3547 50.1 26.896V26.864ZM59.0844 26.864C59.0844 26.4053 59.191 26 59.4044 25.648C59.607 25.2853 59.8897 25.0027 60.2524 24.8C60.6044 24.5867 61.0097 24.48 61.4684 24.48H66.0764C66.535 24.48 66.9404 24.5867 67.2924 24.8C67.655 25.0027 67.9377 25.2853 68.1404 25.648C68.3537 26 68.4604 26.4053 68.4604 26.864V26.896C68.4604 27.3547 68.3537 27.7653 68.1404 28.128C67.9377 28.48 67.655 28.7627 67.2924 28.976C66.9404 29.1787 66.535 29.28 66.0764 29.28H61.4684C61.0097 29.28 60.6044 29.1787 60.2524 28.976C59.8897 28.7627 59.607 28.48 59.4044 28.128C59.191 27.7653 59.0844 27.3547 59.0844 26.896V26.864ZM73.2562 26.864C73.2562 26.4053 73.3629 26 73.5762 25.648C73.7789 25.2853 74.0616 25.0027 74.4242 24.8C74.7762 24.5867 75.1816 24.48 75.6402 24.48H84.6643C85.1229 24.48 85.5283 24.5867 85.8803 24.8C86.2429 25.0027 86.5256 25.2853 86.7283 25.648C86.9416 26 87.0483 26.4053 87.0483 26.864V26.896C87.0483 27.3547 86.9416 27.7653 86.7283 28.128C86.5256 28.48 86.2429 28.7627 85.8803 28.976C85.5283 29.1787 85.1229 29.28 84.6643 29.28H75.6402C75.1816 29.28 74.7762 29.1787 74.4242 28.976C74.0616 28.7627 73.7789 28.48 73.5762 28.128C73.3629 27.7653 73.2562 27.3547 73.2562 26.896V26.864ZM82.2406 26.864C82.2406 26.4053 82.3473 26 82.5606 25.648C82.7633 25.2853 83.046 25.0027 83.4086 24.8C83.7606 24.5867 84.166 24.48 84.6246 24.48H89.2326C89.6913 24.48 90.0966 24.5867 90.4486 24.8C90.8113 25.0027 91.094 25.2853 91.2966 25.648C91.51 26 91.6166 26.4053 91.6166 26.864V26.896C91.6166 27.3547 91.51 27.7653 91.2966 28.128C91.094 28.48 90.8113 28.7627 90.4486 28.976C90.0966 29.1787 89.6913 29.28 89.2326 29.28H84.6246C84.166 29.28 83.7606 29.1787 83.4086 28.976C83.046 28.7627 82.7633 28.48 82.5606 28.128C82.3473 27.7653 82.2406 27.3547 82.2406 26.896V26.864ZM86.8187 26.864C86.8187 26.4053 86.9254 26 87.1387 25.648C87.3414 25.2853 87.6241 25.0027 87.9867 24.8C88.3387 24.5867 88.7441 24.48 89.2027 24.48H98.2268C98.6854 24.48 99.0908 24.5867 99.4428 24.8C99.8054 25.0027 100.088 25.2853 100.291 25.648C100.504 26 100.611 26.4053 100.611 26.864V26.896C100.611 27.3547 100.504 27.7653 100.291 28.128C100.088 28.48 99.8054 28.7627 99.4428 28.976C99.0908 29.1787 98.6854 29.28 98.2268 29.28H89.2027C88.7441 29.28 88.3387 29.1787 87.9867 28.976C87.6241 28.7627 87.3414 28.48 87.1387 28.128C86.9254 27.7653 86.8187 27.3547 86.8187 26.896V26.864ZM95.8031 26.864C95.8031 26.4053 95.9098 26 96.1231 25.648C96.3258 25.2853 96.6085 25.0027 96.9711 24.8C97.3231 24.5867 97.7285 24.48 98.1871 24.48H107.211C107.67 24.48 108.075 24.5867 108.427 24.8C108.79 25.0027 109.072 25.2853 109.275 25.648C109.488 26 109.595 26.4053 109.595 26.864V26.896C109.595 27.3547 109.488 27.7653 109.275 28.128C109.072 28.48 108.79 28.7627 108.427 28.976C108.075 29.1787 107.67 29.28 107.211 29.28H98.1871C97.7285 29.28 97.3231 29.1787 96.9711 28.976C96.6085 28.7627 96.3258 28.48 96.1231 28.128C95.9098 27.7653 95.8031 27.3547 95.8031 26.896V26.864ZM104.787 26.864C104.787 26.4053 104.894 26 105.107 25.648C105.31 25.2853 105.593 25.0027 105.955 24.8C106.307 24.5867 106.713 24.48 107.171 24.48H116.196C116.654 24.48 117.06 24.5867 117.412 24.8C117.774 25.0027 118.057 25.2853 118.26 25.648C118.473 26 118.58 26.4053 118.58 26.864V26.896C118.58 27.3547 118.473 27.7653 118.26 28.128C118.057 28.48 117.774 28.7627 117.412 28.976C117.06 29.1787 116.654 29.28 116.196 29.28H107.171C106.713 29.28 106.307 29.1787 105.955 28.976C105.593 28.7627 105.31 28.48 105.107 28.128C104.894 27.7653 104.787 27.3547 104.787 26.896V26.864ZM113.772 26.864C113.772 26.4053 113.879 26 114.092 25.648C114.295 25.2853 114.577 25.0027 114.94 24.8C115.292 24.5867 115.697 24.48 116.156 24.48H125.18C125.639 24.48 126.044 24.5867 126.396 24.8C126.759 25.0027 127.041 25.2853 127.244 25.648C127.457 26 127.564 26.4053 127.564 26.864V26.896C127.564 27.3547 127.457 27.7653 127.244 28.128C127.041 28.48 126.759 28.7627 126.396 28.976C126.044 29.1787 125.639 29.28 125.18 29.28H116.156C115.697 29.28 115.292 29.1787 114.94 28.976C114.577 28.7627 114.295 28.48 114.092 28.128C113.879 27.7653 113.772 27.3547 113.772 26.896V26.864ZM122.756 26.864C122.756 26.4053 122.863 26 123.076 25.648C123.279 25.2853 123.562 25.0027 123.924 24.8C124.276 24.5867 124.682 24.48 125.14 24.48H134.164C134.623 24.48 135.028 24.5867 135.38 24.8C135.743 25.0027 136.026 25.2853 136.228 25.648C136.442 26 136.548 26.4053 136.548 26.864V26.896C136.548 27.3547 136.442 27.7653 136.228 28.128C136.026 28.48 135.743 28.7627 135.38 28.976C135.028 29.1787 134.623 29.28 134.164 29.28H125.14C124.682 29.28 124.276 29.1787 123.924 28.976C123.562 28.7627 123.279 28.48 123.076 28.128C122.863 27.7653 122.756 27.3547 122.756 26.896V26.864ZM131.741 26.864C131.741 26.4053 131.847 26 132.061 25.648C132.263 25.2853 132.546 25.0027 132.909 24.8C133.261 24.5867 133.666 24.48 134.125 24.48H143.149C143.607 24.48 144.013 24.5867 144.365 24.8C144.727 25.0027 145.01 25.2853 145.213 25.648C145.426 26 145.533 26.4053 145.533 26.864V26.896C145.533 27.3547 145.426 27.7653 145.213 28.128C145.01 28.48 144.727 28.7627 144.365 28.976C144.013 29.1787 143.607 29.28 143.149 29.28H134.125C133.666 29.28 133.261 29.1787 132.909 28.976C132.546 28.7627 132.263 28.48 132.061 28.128C131.847 27.7653 131.741 27.3547 131.741 26.896V26.864ZM140.725 26.864C140.725 26.4053 140.832 26 141.045 25.648C141.248 25.2853 141.53 25.0027 141.893 24.8C142.245 24.5867 142.65 24.48 143.109 24.48H152.133C152.592 24.48 152.997 24.5867 153.349 24.8C153.712 25.0027 153.994 25.2853 154.197 25.648C154.41 26 154.517 26.4053 154.517 26.864V26.896C154.517 27.3547 154.41 27.7653 154.197 28.128C153.994 28.48 153.712 28.7627 153.349 28.976C152.997 29.1787 152.592 29.28 152.133 29.28H143.109C142.65 29.28 142.245 29.1787 141.893 28.976C141.53 28.7627 141.248 28.48 141.045 28.128C140.832 27.7653 140.725 27.3547 140.725 26.896V26.864ZM159.303 26.864C159.303 26.4053 159.41 26 159.623 25.648C159.826 25.2853 160.108 25.0027 160.471 24.8C160.823 24.5867 161.228 24.48 161.687 24.48H170.711C171.17 24.48 171.575 24.5867 171.927 24.8C172.29 25.0027 172.572 25.2853 172.775 25.648C172.988 26 173.095 26.4053 173.095 26.864V26.896C173.095 27.3547 172.988 27.7653 172.775 28.128C172.572 28.48 172.29 28.7627 171.927 28.976C171.575 29.1787 171.17 29.28 170.711 29.28H161.687C161.228 29.28 160.823 29.1787 160.471 28.976C160.108 28.7627 159.826 28.48 159.623 28.128C159.41 27.7653 159.303 27.3547 159.303 26.896V26.864ZM168.287 26.864C168.287 26.4053 168.394 26 168.607 25.648C168.81 25.2853 169.093 25.0027 169.455 24.8C169.807 24.5867 170.213 24.48 170.671 24.48H179.696C180.154 24.48 180.56 24.5867 180.912 24.8C181.274 25.0027 181.557 25.2853 181.76 25.648C181.973 26 182.08 26.4053 182.08 26.864V26.896C182.08 27.3547 181.973 27.7653 181.76 28.128C181.557 28.48 181.274 28.7627 180.912 28.976C180.56 29.1787 180.154 29.28 179.696 29.28H170.671C170.213 29.28 169.807 29.1787 169.455 28.976C169.093 28.7627 168.81 28.48 168.607 28.128C168.394 27.7653 168.287 27.3547 168.287 26.896V26.864ZM177.272 26.864C177.272 26.4053 177.379 26 177.592 25.648C177.795 25.2853 178.077 25.0027 178.44 24.8C178.792 24.5867 179.197 24.48 179.656 24.48H188.68C189.139 24.48 189.544 24.5867 189.896 24.8C190.259 25.0027 190.541 25.2853 190.744 25.648C190.957 26 191.064 26.4053 191.064 26.864V26.896C191.064 27.3547 190.957 27.7653 190.744 28.128C190.541 28.48 190.259 28.7627 189.896 28.976C189.544 29.1787 189.139 29.28 188.68 29.28H179.656C179.197 29.28 178.792 29.1787 178.44 28.976C178.077 28.7627 177.795 28.48 177.592 28.128C177.379 27.7653 177.272 27.3547 177.272 26.896V26.864ZM186.256 26.864C186.256 26.4053 186.363 26 186.576 25.648C186.779 25.2853 187.062 25.0027 187.424 24.8C187.776 24.5867 188.182 24.48 188.64 24.48H197.664C198.123 24.48 198.528 24.5867 198.88 24.8C199.243 25.0027 199.526 25.2853 199.728 25.648C199.942 26 200.048 26.4053 200.048 26.864V26.896C200.048 27.3547 199.942 27.7653 199.728 28.128C199.526 28.48 199.243 28.7627 198.88 28.976C198.528 29.1787 198.123 29.28 197.664 29.28H188.64C188.182 29.28 187.776 29.1787 187.424 28.976C187.062 28.7627 186.779 28.48 186.576 28.128C186.363 27.7653 186.256 27.3547 186.256 26.896V26.864ZM195.241 26.864C195.241 26.4053 195.347 26 195.561 25.648C195.763 25.2853 196.046 25.0027 196.409 24.8C196.761 24.5867 197.166 24.48 197.625 24.48H206.649C207.107 24.48 207.513 24.5867 207.865 24.8C208.227 25.0027 208.51 25.2853 208.713 25.648C208.926 26 209.033 26.4053 209.033 26.864V26.896C209.033 27.3547 208.926 27.7653 208.713 28.128C208.51 28.48 208.227 28.7627 207.865 28.976C207.513 29.1787 207.107 29.28 206.649 29.28H197.625C197.166 29.28 196.761 29.1787 196.409 28.976C196.046 28.7627 195.763 28.48 195.561 28.128C195.347 27.7653 195.241 27.3547 195.241 26.896V26.864ZM204.225 26.864C204.225 26.4053 204.332 26 204.545 25.648C204.748 25.2853 205.03 25.0027 205.393 24.8C205.745 24.5867 206.15 24.48 206.609 24.48H211.217C211.676 24.48 212.081 24.5867 212.433 24.8C212.796 25.0027 213.078 25.2853 213.281 25.648C213.494 26 213.601 26.4053 213.601 26.864V26.896C213.601 27.3547 213.494 27.7653 213.281 28.128C213.078 28.48 212.796 28.7627 212.433 28.976C212.081 29.1787 211.676 29.28 211.217 29.28H206.609C206.15 29.28 205.745 29.1787 205.393 28.976C205.03 28.7627 204.748 28.48 204.545 28.128C204.332 27.7653 204.225 27.3547 204.225 26.896V26.864ZM208.803 26.864C208.803 26.4053 208.91 26 209.123 25.648C209.326 25.2853 209.608 25.0027 209.971 24.8C210.323 24.5867 210.728 24.48 211.187 24.48H220.211C220.67 24.48 221.075 24.5867 221.427 24.8C221.79 25.0027 222.072 25.2853 222.275 25.648C222.488 26 222.595 26.4053 222.595 26.864V26.896C222.595 27.3547 222.488 27.7653 222.275 28.128C222.072 28.48 221.79 28.7627 221.427 28.976C221.075 29.1787 220.67 29.28 220.211 29.28H211.187C210.728 29.28 210.323 29.1787 209.971 28.976C209.608 28.7627 209.326 28.48 209.123 28.128C208.91 27.7653 208.803 27.3547 208.803 26.896V26.864ZM217.787 26.864C217.787 26.4053 217.894 26 218.107 25.648C218.31 25.2853 218.593 25.0027 218.955 24.8C219.307 24.5867 219.713 24.48 220.171 24.48H224.78C225.238 24.48 225.644 24.5867 225.996 24.8C226.358 25.0027 226.641 25.2853 226.844 25.648C227.057 26 227.164 26.4053 227.164 26.864V26.896C227.164 27.3547 227.057 27.7653 226.844 28.128C226.641 28.48 226.358 28.7627 225.996 28.976C225.644 29.1787 225.238 29.28 224.78 29.28H220.171C219.713 29.28 219.307 29.1787 218.955 28.976C218.593 28.7627 218.31 28.48 218.107 28.128C217.894 27.7653 217.787 27.3547 217.787 26.896V26.864Z" fill="#7D7D7D"/>
</svg>
