<svg width="150" height="33" viewBox="0 0 150 33" fill="none" xmlns="http://www.w3.org/2000/svg">
<path d="M0.3 3.222C0.3 2.706 0.42 2.25 0.66 1.854C0.888 1.446 1.206 1.128 1.614 0.9C2.01 0.66 2.466 0.539999 2.982 0.539999H13.134C13.65 0.539999 14.106 0.66 14.502 0.9C14.91 1.128 15.228 1.446 15.456 1.854C15.696 2.25 15.816 2.706 15.816 3.222V3.258C15.816 3.774 15.696 4.236 15.456 4.644C15.228 5.04 14.91 5.358 14.502 5.598C14.106 5.826 13.65 5.94 13.134 5.94H2.982C2.466 5.94 2.01 5.826 1.614 5.598C1.206 5.358 0.888 5.04 0.66 4.644C0.42 4.236 0.3 3.774 0.3 3.258V3.222ZM10.4074 3.222C10.4074 2.706 10.5274 2.25 10.7674 1.854C10.9954 1.446 11.3134 1.128 11.7214 0.9C12.1174 0.66 12.5734 0.539999 13.0894 0.539999H23.2414C23.7574 0.539999 24.2134 0.66 24.6094 0.9C25.0174 1.128 25.3354 1.446 25.5634 1.854C25.8034 2.25 25.9234 2.706 25.9234 3.222V3.258C25.9234 3.774 25.8034 4.236 25.5634 4.644C25.3354 5.04 25.0174 5.358 24.6094 5.598C24.2134 5.826 23.7574 5.94 23.2414 5.94H13.0894C12.5734 5.94 12.1174 5.826 11.7214 5.598C11.3134 5.358 10.9954 5.04 10.7674 4.644C10.5274 4.236 10.4074 3.774 10.4074 3.258V3.222ZM20.5148 3.222C20.5148 2.706 20.6348 2.25 20.8748 1.854C21.1028 1.446 21.4208 1.128 21.8288 0.9C22.2248 0.66 22.6808 0.539999 23.1968 0.539999H28.3808C28.8968 0.539999 29.3528 0.66 29.7488 0.9C30.1568 1.128 30.4748 1.446 30.7028 1.854C30.9428 2.25 31.0628 2.706 31.0628 3.222V3.258C31.0628 3.774 30.9428 4.236 30.7028 4.644C30.4748 5.04 30.1568 5.358 29.7488 5.598C29.3528 5.826 28.8968 5.94 28.3808 5.94H23.1968C22.6808 5.94 22.2248 5.826 21.8288 5.598C21.4208 5.358 21.1028 5.04 20.8748 4.644C20.6348 4.236 20.5148 3.774 20.5148 3.258V3.222ZM25.6652 3.222C25.6652 2.706 25.7852 2.25 26.0252 1.854C26.2532 1.446 26.5712 1.128 26.9792 0.9C27.3752 0.66 27.8312 0.539999 28.3472 0.539999H38.4992C39.0152 0.539999 39.4712 0.66 39.8672 0.9C40.2752 1.128 40.5932 1.446 40.8212 1.854C41.0612 2.25 41.1812 2.706 41.1812 3.222V3.258C41.1812 3.774 41.0612 4.236 40.8212 4.644C40.5932 5.04 40.2752 5.358 39.8672 5.598C39.4712 5.826 39.0152 5.94 38.4992 5.94H28.3472C27.8312 5.94 27.3752 5.826 26.9792 5.598C26.5712 5.358 26.2532 5.04 26.0252 4.644C25.7852 4.236 25.6652 3.774 25.6652 3.258V3.222ZM35.7727 3.222C35.7727 2.706 35.8927 2.25 36.1327 1.854C36.3607 1.446 36.6787 1.128 37.0867 0.9C37.4827 0.66 37.9387 0.539999 38.4547 0.539999H43.6387C44.1547 0.539999 44.6107 0.66 45.0067 0.9C45.4147 1.128 45.7327 1.446 45.9607 1.854C46.2007 2.25 46.3207 2.706 46.3207 3.222V3.258C46.3207 3.774 46.2007 4.236 45.9607 4.644C45.7327 5.04 45.4147 5.358 45.0067 5.598C44.6107 5.826 44.1547 5.94 43.6387 5.94H38.4547C37.9387 5.94 37.4827 5.826 37.0867 5.598C36.6787 5.358 36.3607 5.04 36.1327 4.644C35.8927 4.236 35.7727 3.774 35.7727 3.258V3.222ZM40.923 3.222C40.923 2.706 41.043 2.25 41.283 1.854C41.511 1.446 41.829 1.128 42.237 0.9C42.633 0.66 43.089 0.539999 43.605 0.539999H53.757C54.273 0.539999 54.729 0.66 55.125 0.9C55.533 1.128 55.851 1.446 56.079 1.854C56.319 2.25 56.439 2.706 56.439 3.222V3.258C56.439 3.774 56.319 4.236 56.079 4.644C55.851 5.04 55.533 5.358 55.125 5.598C54.729 5.826 54.273 5.94 53.757 5.94H43.605C43.089 5.94 42.633 5.826 42.237 5.598C41.829 5.358 41.511 5.04 41.283 4.644C41.043 4.236 40.923 3.774 40.923 3.258V3.222ZM51.0305 3.222C51.0305 2.706 51.1505 2.25 51.3905 1.854C51.6185 1.446 51.9365 1.128 52.3445 0.9C52.7405 0.66 53.1965 0.539999 53.7125 0.539999H63.8645C64.3805 0.539999 64.8365 0.66 65.2325 0.9C65.6405 1.128 65.9585 1.446 66.1865 1.854C66.4265 2.25 66.5465 2.706 66.5465 3.222V3.258C66.5465 3.774 66.4265 4.236 66.1865 4.644C65.9585 5.04 65.6405 5.358 65.2325 5.598C64.8365 5.826 64.3805 5.94 63.8645 5.94H53.7125C53.1965 5.94 52.7405 5.826 52.3445 5.598C51.9365 5.358 51.6185 5.04 51.3905 4.644C51.1505 4.236 51.0305 3.774 51.0305 3.258V3.222ZM71.9309 3.222C71.9309 2.706 72.0509 2.25 72.2909 1.854C72.5189 1.446 72.8369 1.128 73.2449 0.9C73.6409 0.66 74.0969 0.539999 74.6129 0.539999H79.7969C80.3129 0.539999 80.7689 0.66 81.1649 0.9C81.5729 1.128 81.8909 1.446 82.1189 1.854C82.3589 2.25 82.4789 2.706 82.4789 3.222V3.258C82.4789 3.774 82.3589 4.236 82.1189 4.644C81.8909 5.04 81.5729 5.358 81.1649 5.598C80.7689 5.826 80.3129 5.94 79.7969 5.94H74.6129C74.0969 5.94 73.6409 5.826 73.2449 5.598C72.8369 5.358 72.5189 5.04 72.2909 4.644C72.0509 4.236 71.9309 3.774 71.9309 3.258V3.222ZM77.0812 3.222C77.0812 2.706 77.2012 2.25 77.4412 1.854C77.6692 1.446 77.9872 1.128 78.3952 0.9C78.7912 0.66 79.2472 0.539999 79.7632 0.539999H89.9153C90.4313 0.539999 90.8873 0.66 91.2833 0.9C91.6913 1.128 92.0093 1.446 92.2373 1.854C92.4773 2.25 92.5973 2.706 92.5973 3.222V3.258C92.5973 3.774 92.4773 4.236 92.2373 4.644C92.0093 5.04 91.6913 5.358 91.2833 5.598C90.8873 5.826 90.4313 5.94 89.9153 5.94H79.7632C79.2472 5.94 78.7912 5.826 78.3952 5.598C77.9872 5.358 77.6692 5.04 77.4412 4.644C77.2012 4.236 77.0812 3.774 77.0812 3.258V3.222ZM87.1887 3.222C87.1887 2.706 87.3087 2.25 87.5487 1.854C87.7767 1.446 88.0947 1.128 88.5027 0.9C88.8987 0.66 89.3547 0.539999 89.8707 0.539999H100.023C100.539 0.539999 100.995 0.66 101.391 0.9C101.799 1.128 102.117 1.446 102.345 1.854C102.585 2.25 102.705 2.706 102.705 3.222V3.258C102.705 3.774 102.585 4.236 102.345 4.644C102.117 5.04 101.799 5.358 101.391 5.598C100.995 5.826 100.539 5.94 100.023 5.94H89.8707C89.3547 5.94 88.8987 5.826 88.5027 5.598C88.0947 5.358 87.7767 5.04 87.5487 4.644C87.3087 4.236 87.1887 3.774 87.1887 3.258V3.222ZM97.2961 3.222C97.2961 2.706 97.4161 2.25 97.6561 1.854C97.8841 1.446 98.2021 1.128 98.6101 0.9C99.0061 0.66 99.4621 0.539999 99.9781 0.539999H110.13C110.646 0.539999 111.102 0.66 111.498 0.9C111.906 1.128 112.224 1.446 112.452 1.854C112.692 2.25 112.812 2.706 112.812 3.222V3.258C112.812 3.774 112.692 4.236 112.452 4.644C112.224 5.04 111.906 5.358 111.498 5.598C111.102 5.826 110.646 5.94 110.13 5.94H99.9781C99.4621 5.94 99.0061 5.826 98.6101 5.598C98.2021 5.358 97.8841 5.04 97.6561 4.644C97.4161 4.236 97.2961 3.774 97.2961 3.258V3.222ZM107.404 3.222C107.404 2.706 107.524 2.25 107.764 1.854C107.992 1.446 108.31 1.128 108.718 0.9C109.114 0.66 109.57 0.539999 110.086 0.539999H120.238C120.754 0.539999 121.21 0.66 121.606 0.9C122.014 1.128 122.332 1.446 122.56 1.854C122.8 2.25 122.92 2.706 122.92 3.222V3.258C122.92 3.774 122.8 4.236 122.56 4.644C122.332 5.04 122.014 5.358 121.606 5.598C121.21 5.826 120.754 5.94 120.238 5.94H110.086C109.57 5.94 109.114 5.826 108.718 5.598C108.31 5.358 107.992 5.04 107.764 4.644C107.524 4.236 107.404 3.774 107.404 3.258V3.222ZM117.511 3.222C117.511 2.706 117.631 2.25 117.871 1.854C118.099 1.446 118.417 1.128 118.825 0.9C119.221 0.66 119.677 0.539999 120.193 0.539999H130.345C130.861 0.539999 131.317 0.66 131.713 0.9C132.121 1.128 132.439 1.446 132.667 1.854C132.907 2.25 133.027 2.706 133.027 3.222V3.258C133.027 3.774 132.907 4.236 132.667 4.644C132.439 5.04 132.121 5.358 131.713 5.598C131.317 5.826 130.861 5.94 130.345 5.94H120.193C119.677 5.94 119.221 5.826 118.825 5.598C118.417 5.358 118.099 5.04 117.871 4.644C117.631 4.236 117.511 3.774 117.511 3.258V3.222ZM127.618 3.222C127.618 2.706 127.738 2.25 127.978 1.854C128.206 1.446 128.524 1.128 128.932 0.9C129.328 0.66 129.784 0.539999 130.3 0.539999H135.484C136 0.539999 136.456 0.66 136.852 0.9C137.26 1.128 137.578 1.446 137.806 1.854C138.046 2.25 138.166 2.706 138.166 3.222V3.258C138.166 3.774 138.046 4.236 137.806 4.644C137.578 5.04 137.26 5.358 136.852 5.598C136.456 5.826 136 5.94 135.484 5.94H130.3C129.784 5.94 129.328 5.826 128.932 5.598C128.524 5.358 128.206 5.04 127.978 4.644C127.738 4.236 127.618 3.774 127.618 3.258V3.222ZM0.3 30.222C0.3 29.706 0.42 29.25 0.66 28.854C0.888 28.446 1.206 28.128 1.614 27.9C2.01 27.66 2.466 27.54 2.982 27.54H13.134C13.65 27.54 14.106 27.66 14.502 27.9C14.91 28.128 15.228 28.446 15.456 28.854C15.696 29.25 15.816 29.706 15.816 30.222V30.258C15.816 30.774 15.696 31.236 15.456 31.644C15.228 32.04 14.91 32.358 14.502 32.598C14.106 32.826 13.65 32.94 13.134 32.94H2.982C2.466 32.94 2.01 32.826 1.614 32.598C1.206 32.358 0.888 32.04 0.66 31.644C0.42 31.236 0.3 30.774 0.3 30.258V30.222ZM10.4074 30.222C10.4074 29.706 10.5274 29.25 10.7674 28.854C10.9954 28.446 11.3134 28.128 11.7214 27.9C12.1174 27.66 12.5734 27.54 13.0894 27.54H23.2414C23.7574 27.54 24.2134 27.66 24.6094 27.9C25.0174 28.128 25.3354 28.446 25.5634 28.854C25.8034 29.25 25.9234 29.706 25.9234 30.222V30.258C25.9234 30.774 25.8034 31.236 25.5634 31.644C25.3354 32.04 25.0174 32.358 24.6094 32.598C24.2134 32.826 23.7574 32.94 23.2414 32.94H13.0894C12.5734 32.94 12.1174 32.826 11.7214 32.598C11.3134 32.358 10.9954 32.04 10.7674 31.644C10.5274 31.236 10.4074 30.774 10.4074 30.258V30.222ZM42.1008 30.222C42.1008 29.706 42.2208 29.25 42.4608 28.854C42.6888 28.446 43.0068 28.128 43.4148 27.9C43.8108 27.66 44.2668 27.54 44.7828 27.54H54.9348C55.4508 27.54 55.9068 27.66 56.3028 27.9C56.7108 28.128 57.0288 28.446 57.2568 28.854C57.4968 29.25 57.6168 29.706 57.6168 30.222V30.258C57.6168 30.774 57.4968 31.236 57.2568 31.644C57.0288 32.04 56.7108 32.358 56.3028 32.598C55.9068 32.826 55.4508 32.94 54.9348 32.94H44.7828C44.2668 32.94 43.8108 32.826 43.4148 32.598C43.0068 32.358 42.6888 32.04 42.4608 31.644C42.2208 31.236 42.1008 30.774 42.1008 30.258V30.222ZM52.2082 30.222C52.2082 29.706 52.3282 29.25 52.5682 28.854C52.7962 28.446 53.1142 28.128 53.5222 27.9C53.9182 27.66 54.3742 27.54 54.8902 27.54H65.0422C65.5582 27.54 66.0142 27.66 66.4102 27.9C66.8182 28.128 67.1362 28.446 67.3642 28.854C67.6042 29.25 67.7242 29.706 67.7242 30.222V30.258C67.7242 30.774 67.6042 31.236 67.3642 31.644C67.1362 32.04 66.8182 32.358 66.4102 32.598C66.0142 32.826 65.5582 32.94 65.0422 32.94H54.8902C54.3742 32.94 53.9182 32.826 53.5222 32.598C53.1142 32.358 52.7962 32.04 52.5682 31.644C52.3282 31.236 52.2082 30.774 52.2082 30.258V30.222ZM62.3156 30.222C62.3156 29.706 62.4356 29.25 62.6756 28.854C62.9036 28.446 63.2216 28.128 63.6296 27.9C64.0256 27.66 64.4816 27.54 64.9976 27.54H75.1496C75.6656 27.54 76.1216 27.66 76.5176 27.9C76.9256 28.128 77.2436 28.446 77.4716 28.854C77.7116 29.25 77.8316 29.706 77.8316 30.222V30.258C77.8316 30.774 77.7116 31.236 77.4716 31.644C77.2436 32.04 76.9256 32.358 76.5176 32.598C76.1216 32.826 75.6656 32.94 75.1496 32.94H64.9976C64.4816 32.94 64.0256 32.826 63.6296 32.598C63.2216 32.358 62.9036 32.04 62.6756 31.644C62.4356 31.236 62.3156 30.774 62.3156 30.258V30.222ZM72.423 30.222C72.423 29.706 72.543 29.25 72.783 28.854C73.011 28.446 73.329 28.128 73.737 27.9C74.133 27.66 74.589 27.54 75.105 27.54H85.257C85.773 27.54 86.229 27.66 86.625 27.9C87.033 28.128 87.351 28.446 87.579 28.854C87.819 29.25 87.939 29.706 87.939 30.222V30.258C87.939 30.774 87.819 31.236 87.579 31.644C87.351 32.04 87.033 32.358 86.625 32.598C86.229 32.826 85.773 32.94 85.257 32.94H75.105C74.589 32.94 74.133 32.826 73.737 32.598C73.329 32.358 73.011 32.04 72.783 31.644C72.543 31.236 72.423 30.774 72.423 30.258V30.222ZM82.5305 30.222C82.5305 29.706 82.6505 29.25 82.8905 28.854C83.1185 28.446 83.4365 28.128 83.8445 27.9C84.2405 27.66 84.6965 27.54 85.2125 27.54H95.3645C95.8805 27.54 96.3365 27.66 96.7325 27.9C97.1405 28.128 97.4585 28.446 97.6865 28.854C97.9265 29.25 98.0465 29.706 98.0465 30.222V30.258C98.0465 30.774 97.9265 31.236 97.6865 31.644C97.4585 32.04 97.1405 32.358 96.7325 32.598C96.3365 32.826 95.8805 32.94 95.3645 32.94H85.2125C84.6965 32.94 84.2405 32.826 83.8445 32.598C83.4365 32.358 83.1185 32.04 82.8905 31.644C82.6505 31.236 82.5305 30.774 82.5305 30.258V30.222ZM114.224 30.222C114.224 29.706 114.344 29.25 114.584 28.854C114.812 28.446 115.13 28.128 115.538 27.9C115.934 27.66 116.39 27.54 116.906 27.54H127.058C127.574 27.54 128.03 27.66 128.426 27.9C128.834 28.128 129.152 28.446 129.38 28.854C129.62 29.25 129.74 29.706 129.74 30.222V30.258C129.74 30.774 129.62 31.236 129.38 31.644C129.152 32.04 128.834 32.358 128.426 32.598C128.03 32.826 127.574 32.94 127.058 32.94H116.906C116.39 32.94 115.934 32.826 115.538 32.598C115.13 32.358 114.812 32.04 114.584 31.644C114.344 31.236 114.224 30.774 114.224 30.258V30.222ZM124.331 30.222C124.331 29.706 124.451 29.25 124.691 28.854C124.919 28.446 125.237 28.128 125.645 27.9C126.041 27.66 126.497 27.54 127.013 27.54H137.165C137.681 27.54 138.137 27.66 138.533 27.9C138.941 28.128 139.259 28.446 139.487 28.854C139.727 29.25 139.847 29.706 139.847 30.222V30.258C139.847 30.774 139.727 31.236 139.487 31.644C139.259 32.04 138.941 32.358 138.533 32.598C138.137 32.826 137.681 32.94 137.165 32.94H127.013C126.497 32.94 126.041 32.826 125.645 32.598C125.237 32.358 124.919 32.04 124.691 31.644C124.451 31.236 124.331 30.774 124.331 30.258V30.222ZM134.439 30.222C134.439 29.706 134.559 29.25 134.799 28.854C135.027 28.446 135.345 28.128 135.753 27.9C136.149 27.66 136.605 27.54 137.121 27.54H147.273C147.789 27.54 148.245 27.66 148.641 27.9C149.049 28.128 149.367 28.446 149.595 28.854C149.835 29.25 149.955 29.706 149.955 30.222V30.258C149.955 30.774 149.835 31.236 149.595 31.644C149.367 32.04 149.049 32.358 148.641 32.598C148.245 32.826 147.789 32.94 147.273 32.94H137.121C136.605 32.94 136.149 32.826 135.753 32.598C135.345 32.358 135.027 32.04 134.799 31.644C134.559 31.236 134.439 30.774 134.439 30.258V30.222Z" fill="#00C692"/>
</svg>
