<svg width="151" height="33" viewBox="0 0 151 33" fill="none" xmlns="http://www.w3.org/2000/svg">
<path d="M6.56562 3.222C6.56562 2.706 6.68562 2.25 6.92562 1.854C7.15362 1.446 7.47162 1.128 7.87962 0.9C8.27562 0.66 8.73162 0.539999 9.24762 0.539999H19.3996C19.9156 0.539999 20.3716 0.66 20.7676 0.9C21.1756 1.128 21.4936 1.446 21.7216 1.854C21.9616 2.25 22.0816 2.706 22.0816 3.222V3.258C22.0816 3.774 21.9616 4.236 21.7216 4.644C21.4936 5.04 21.1756 5.358 20.7676 5.598C20.3716 5.826 19.9156 5.94 19.3996 5.94H9.24762C8.73162 5.94 8.27562 5.826 7.87962 5.598C7.47162 5.358 7.15362 5.04 6.92562 4.644C6.68562 4.236 6.56562 3.774 6.56562 3.258V3.222ZM16.673 3.222C16.673 2.706 16.793 2.25 17.033 1.854C17.261 1.446 17.579 1.128 17.987 0.9C18.383 0.66 18.839 0.539999 19.355 0.539999H29.507C30.023 0.539999 30.479 0.66 30.875 0.9C31.283 1.128 31.601 1.446 31.829 1.854C32.069 2.25 32.189 2.706 32.189 3.222V3.258C32.189 3.774 32.069 4.236 31.829 4.644C31.601 5.04 31.283 5.358 30.875 5.598C30.479 5.826 30.023 5.94 29.507 5.94H19.355C18.839 5.94 18.383 5.826 17.987 5.598C17.579 5.358 17.261 5.04 17.033 4.644C16.793 4.236 16.673 3.774 16.673 3.258V3.222ZM26.7805 3.222C26.7805 2.706 26.9005 2.25 27.1405 1.854C27.3685 1.446 27.6865 1.128 28.0945 0.9C28.4905 0.66 28.9465 0.539999 29.4625 0.539999H34.6465C35.1625 0.539999 35.6185 0.66 36.0145 0.9C36.4225 1.128 36.7405 1.446 36.9685 1.854C37.2085 2.25 37.3285 2.706 37.3285 3.222V3.258C37.3285 3.774 37.2085 4.236 36.9685 4.644C36.7405 5.04 36.4225 5.358 36.0145 5.598C35.6185 5.826 35.1625 5.94 34.6465 5.94H29.4625C28.9465 5.94 28.4905 5.826 28.0945 5.598C27.6865 5.358 27.3685 5.04 27.1405 4.644C26.9005 4.236 26.7805 3.774 26.7805 3.258V3.222ZM31.9309 3.222C31.9309 2.706 32.0509 2.25 32.2909 1.854C32.5189 1.446 32.8369 1.128 33.2449 0.9C33.6409 0.66 34.0969 0.539999 34.6129 0.539999H44.7649C45.2809 0.539999 45.7369 0.66 46.1329 0.9C46.5409 1.128 46.8589 1.446 47.0869 1.854C47.3269 2.25 47.4469 2.706 47.4469 3.222V3.258C47.4469 3.774 47.3269 4.236 47.0869 4.644C46.8589 5.04 46.5409 5.358 46.1329 5.598C45.7369 5.826 45.2809 5.94 44.7649 5.94H34.6129C34.0969 5.94 33.6409 5.826 33.2449 5.598C32.8369 5.358 32.5189 5.04 32.2909 4.644C32.0509 4.236 31.9309 3.774 31.9309 3.258V3.222ZM42.0383 3.222C42.0383 2.706 42.1583 2.25 42.3983 1.854C42.6263 1.446 42.9443 1.128 43.3523 0.9C43.7483 0.66 44.2043 0.539999 44.7203 0.539999H49.9043C50.4203 0.539999 50.8763 0.66 51.2723 0.9C51.6803 1.128 51.9983 1.446 52.2263 1.854C52.4663 2.25 52.5863 2.706 52.5863 3.222V3.258C52.5863 3.774 52.4663 4.236 52.2263 4.644C51.9983 5.04 51.6803 5.358 51.2723 5.598C50.8763 5.826 50.4203 5.94 49.9043 5.94H44.7203C44.2043 5.94 43.7483 5.826 43.3523 5.598C42.9443 5.358 42.6263 5.04 42.3983 4.644C42.1583 4.236 42.0383 3.774 42.0383 3.258V3.222ZM47.1887 3.222C47.1887 2.706 47.3087 2.25 47.5487 1.854C47.7767 1.446 48.0947 1.128 48.5027 0.9C48.8987 0.66 49.3547 0.539999 49.8707 0.539999H60.0227C60.5387 0.539999 60.9947 0.66 61.3907 0.9C61.7987 1.128 62.1167 1.446 62.3447 1.854C62.5847 2.25 62.7047 2.706 62.7047 3.222V3.258C62.7047 3.774 62.5847 4.236 62.3447 4.644C62.1167 5.04 61.7987 5.358 61.3907 5.598C60.9947 5.826 60.5387 5.94 60.0227 5.94H49.8707C49.3547 5.94 48.8987 5.826 48.5027 5.598C48.0947 5.358 47.7767 5.04 47.5487 4.644C47.3087 4.236 47.1887 3.774 47.1887 3.258V3.222ZM57.2961 3.222C57.2961 2.706 57.4161 2.25 57.6561 1.854C57.8841 1.446 58.2021 1.128 58.6101 0.9C59.0061 0.66 59.4621 0.539999 59.9781 0.539999H70.1301C70.6461 0.539999 71.1021 0.66 71.4981 0.9C71.9061 1.128 72.2241 1.446 72.4521 1.854C72.6921 2.25 72.8121 2.706 72.8121 3.222V3.258C72.8121 3.774 72.6921 4.236 72.4521 4.644C72.2241 5.04 71.9061 5.358 71.4981 5.598C71.1021 5.826 70.6461 5.94 70.1301 5.94H59.9781C59.4621 5.94 59.0061 5.826 58.6101 5.598C58.2021 5.358 57.8841 5.04 57.6561 4.644C57.4161 4.236 57.2961 3.774 57.2961 3.258V3.222ZM78.1965 3.222C78.1965 2.706 78.3165 2.25 78.5565 1.854C78.7845 1.446 79.1025 1.128 79.5105 0.9C79.9065 0.66 80.3625 0.539999 80.8785 0.539999H86.0625C86.5785 0.539999 87.0345 0.66 87.4305 0.9C87.8385 1.128 88.1565 1.446 88.3845 1.854C88.6245 2.25 88.7445 2.706 88.7445 3.222V3.258C88.7445 3.774 88.6245 4.236 88.3845 4.644C88.1565 5.04 87.8385 5.358 87.4305 5.598C87.0345 5.826 86.5785 5.94 86.0625 5.94H80.8785C80.3625 5.94 79.9065 5.826 79.5105 5.598C79.1025 5.358 78.7845 5.04 78.5565 4.644C78.3165 4.236 78.1965 3.774 78.1965 3.258V3.222ZM83.3469 3.222C83.3469 2.706 83.4669 2.25 83.7069 1.854C83.9349 1.446 84.2529 1.128 84.6609 0.9C85.0569 0.66 85.5129 0.539999 86.0289 0.539999H96.1809C96.6969 0.539999 97.1529 0.66 97.5489 0.9C97.9569 1.128 98.2749 1.446 98.5029 1.854C98.7429 2.25 98.8629 2.706 98.8629 3.222V3.258C98.8629 3.774 98.7429 4.236 98.5029 4.644C98.2749 5.04 97.9569 5.358 97.5489 5.598C97.1529 5.826 96.6969 5.94 96.1809 5.94H86.0289C85.5129 5.94 85.0569 5.826 84.6609 5.598C84.2529 5.358 83.9349 5.04 83.7069 4.644C83.4669 4.236 83.3469 3.774 83.3469 3.258V3.222ZM93.4543 3.222C93.4543 2.706 93.5743 2.25 93.8143 1.854C94.0423 1.446 94.3603 1.128 94.7683 0.9C95.1643 0.66 95.6203 0.539999 96.1363 0.539999H106.288C106.804 0.539999 107.26 0.66 107.656 0.9C108.064 1.128 108.382 1.446 108.61 1.854C108.85 2.25 108.97 2.706 108.97 3.222V3.258C108.97 3.774 108.85 4.236 108.61 4.644C108.382 5.04 108.064 5.358 107.656 5.598C107.26 5.826 106.804 5.94 106.288 5.94H96.1363C95.6203 5.94 95.1643 5.826 94.7683 5.598C94.3603 5.358 94.0423 5.04 93.8143 4.644C93.5743 4.236 93.4543 3.774 93.4543 3.258V3.222ZM103.562 3.222C103.562 2.706 103.682 2.25 103.922 1.854C104.15 1.446 104.468 1.128 104.876 0.9C105.272 0.66 105.728 0.539999 106.244 0.539999H116.396C116.912 0.539999 117.368 0.66 117.764 0.9C118.172 1.128 118.49 1.446 118.718 1.854C118.958 2.25 119.078 2.706 119.078 3.222V3.258C119.078 3.774 118.958 4.236 118.718 4.644C118.49 5.04 118.172 5.358 117.764 5.598C117.368 5.826 116.912 5.94 116.396 5.94H106.244C105.728 5.94 105.272 5.826 104.876 5.598C104.468 5.358 104.15 5.04 103.922 4.644C103.682 4.236 103.562 3.774 103.562 3.258V3.222ZM113.669 3.222C113.669 2.706 113.789 2.25 114.029 1.854C114.257 1.446 114.575 1.128 114.983 0.9C115.379 0.66 115.835 0.539999 116.351 0.539999H126.503C127.019 0.539999 127.475 0.66 127.871 0.9C128.279 1.128 128.597 1.446 128.825 1.854C129.065 2.25 129.185 2.706 129.185 3.222V3.258C129.185 3.774 129.065 4.236 128.825 4.644C128.597 5.04 128.279 5.358 127.871 5.598C127.475 5.826 127.019 5.94 126.503 5.94H116.351C115.835 5.94 115.379 5.826 114.983 5.598C114.575 5.358 114.257 5.04 114.029 4.644C113.789 4.236 113.669 3.774 113.669 3.258V3.222ZM123.777 3.222C123.777 2.706 123.897 2.25 124.137 1.854C124.365 1.446 124.683 1.128 125.091 0.9C125.487 0.66 125.943 0.539999 126.459 0.539999H136.611C137.127 0.539999 137.583 0.66 137.979 0.9C138.387 1.128 138.705 1.446 138.933 1.854C139.173 2.25 139.293 2.706 139.293 3.222V3.258C139.293 3.774 139.173 4.236 138.933 4.644C138.705 5.04 138.387 5.358 137.979 5.598C137.583 5.826 137.127 5.94 136.611 5.94H126.459C125.943 5.94 125.487 5.826 125.091 5.598C124.683 5.358 124.365 5.04 124.137 4.644C123.897 4.236 123.777 3.774 123.777 3.258V3.222ZM133.884 3.222C133.884 2.706 134.004 2.25 134.244 1.854C134.472 1.446 134.79 1.128 135.198 0.9C135.594 0.66 136.05 0.539999 136.566 0.539999H141.75C142.266 0.539999 142.722 0.66 143.118 0.9C143.526 1.128 143.844 1.446 144.072 1.854C144.312 2.25 144.432 2.706 144.432 3.222V3.258C144.432 3.774 144.312 4.236 144.072 4.644C143.844 5.04 143.526 5.358 143.118 5.598C142.722 5.826 142.266 5.94 141.75 5.94H136.566C136.05 5.94 135.594 5.826 135.198 5.598C134.79 5.358 134.472 5.04 134.244 4.644C134.004 4.236 133.884 3.774 133.884 3.258V3.222ZM0.676953 30.222C0.676953 29.706 0.796953 29.25 1.03695 28.854C1.26495 28.446 1.58295 28.128 1.99095 27.9C2.38695 27.66 2.84295 27.54 3.35895 27.54H13.511C14.027 27.54 14.483 27.66 14.879 27.9C15.287 28.128 15.605 28.446 15.833 28.854C16.073 29.25 16.193 29.706 16.193 30.222V30.258C16.193 30.774 16.073 31.236 15.833 31.644C15.605 32.04 15.287 32.358 14.879 32.598C14.483 32.826 14.027 32.94 13.511 32.94H3.35895C2.84295 32.94 2.38695 32.826 1.99095 32.598C1.58295 32.358 1.26495 32.04 1.03695 31.644C0.796953 31.236 0.676953 30.774 0.676953 30.258V30.222ZM10.7844 30.222C10.7844 29.706 10.9044 29.25 11.1444 28.854C11.3724 28.446 11.6904 28.128 12.0984 27.9C12.4944 27.66 12.9504 27.54 13.4664 27.54H23.6184C24.1344 27.54 24.5904 27.66 24.9864 27.9C25.3944 28.128 25.7124 28.446 25.9404 28.854C26.1804 29.25 26.3004 29.706 26.3004 30.222V30.258C26.3004 30.774 26.1804 31.236 25.9404 31.644C25.7124 32.04 25.3944 32.358 24.9864 32.598C24.5904 32.826 24.1344 32.94 23.6184 32.94H13.4664C12.9504 32.94 12.4944 32.826 12.0984 32.598C11.6904 32.358 11.3724 32.04 11.1444 31.644C10.9044 31.236 10.7844 30.774 10.7844 30.258V30.222ZM42.4777 30.222C42.4777 29.706 42.5977 29.25 42.8377 28.854C43.0657 28.446 43.3837 28.128 43.7917 27.9C44.1877 27.66 44.6437 27.54 45.1597 27.54H55.3117C55.8277 27.54 56.2837 27.66 56.6797 27.9C57.0877 28.128 57.4057 28.446 57.6337 28.854C57.8737 29.25 57.9937 29.706 57.9937 30.222V30.258C57.9937 30.774 57.8737 31.236 57.6337 31.644C57.4057 32.04 57.0877 32.358 56.6797 32.598C56.2837 32.826 55.8277 32.94 55.3117 32.94H45.1597C44.6437 32.94 44.1877 32.826 43.7917 32.598C43.3837 32.358 43.0657 32.04 42.8377 31.644C42.5977 31.236 42.4777 30.774 42.4777 30.258V30.222ZM52.5852 30.222C52.5852 29.706 52.7052 29.25 52.9452 28.854C53.1732 28.446 53.4912 28.128 53.8992 27.9C54.2952 27.66 54.7512 27.54 55.2672 27.54H65.4192C65.9352 27.54 66.3912 27.66 66.7872 27.9C67.1952 28.128 67.5132 28.446 67.7412 28.854C67.9812 29.25 68.1012 29.706 68.1012 30.222V30.258C68.1012 30.774 67.9812 31.236 67.7412 31.644C67.5132 32.04 67.1952 32.358 66.7872 32.598C66.3912 32.826 65.9352 32.94 65.4192 32.94H55.2672C54.7512 32.94 54.2952 32.826 53.8992 32.598C53.4912 32.358 53.1732 32.04 52.9452 31.644C52.7052 31.236 52.5852 30.774 52.5852 30.258V30.222ZM62.6926 30.222C62.6926 29.706 62.8126 29.25 63.0526 28.854C63.2806 28.446 63.5986 28.128 64.0066 27.9C64.4026 27.66 64.8586 27.54 65.3746 27.54H75.5266C76.0426 27.54 76.4986 27.66 76.8946 27.9C77.3026 28.128 77.6206 28.446 77.8486 28.854C78.0886 29.25 78.2086 29.706 78.2086 30.222V30.258C78.2086 30.774 78.0886 31.236 77.8486 31.644C77.6206 32.04 77.3026 32.358 76.8946 32.598C76.4986 32.826 76.0426 32.94 75.5266 32.94H65.3746C64.8586 32.94 64.4026 32.826 64.0066 32.598C63.5986 32.358 63.2806 32.04 63.0526 31.644C62.8126 31.236 62.6926 30.774 62.6926 30.258V30.222ZM72.8 30.222C72.8 29.706 72.92 29.25 73.16 28.854C73.388 28.446 73.706 28.128 74.114 27.9C74.51 27.66 74.966 27.54 75.482 27.54H85.634C86.15 27.54 86.606 27.66 87.002 27.9C87.41 28.128 87.728 28.446 87.956 28.854C88.196 29.25 88.316 29.706 88.316 30.222V30.258C88.316 30.774 88.196 31.236 87.956 31.644C87.728 32.04 87.41 32.358 87.002 32.598C86.606 32.826 86.15 32.94 85.634 32.94H75.482C74.966 32.94 74.51 32.826 74.114 32.598C73.706 32.358 73.388 32.04 73.16 31.644C72.92 31.236 72.8 30.774 72.8 30.258V30.222ZM82.9074 30.222C82.9074 29.706 83.0274 29.25 83.2674 28.854C83.4954 28.446 83.8134 28.128 84.2214 27.9C84.6174 27.66 85.0734 27.54 85.5894 27.54H95.7414C96.2574 27.54 96.7134 27.66 97.1094 27.9C97.5174 28.128 97.8354 28.446 98.0634 28.854C98.3034 29.25 98.4234 29.706 98.4234 30.222V30.258C98.4234 30.774 98.3034 31.236 98.0634 31.644C97.8354 32.04 97.5174 32.358 97.1094 32.598C96.7134 32.826 96.2574 32.94 95.7414 32.94H85.5894C85.0734 32.94 84.6174 32.826 84.2214 32.598C83.8134 32.358 83.4954 32.04 83.2674 31.644C83.0274 31.236 82.9074 30.774 82.9074 30.258V30.222ZM114.601 30.222C114.601 29.706 114.721 29.25 114.961 28.854C115.189 28.446 115.507 28.128 115.915 27.9C116.311 27.66 116.767 27.54 117.283 27.54H127.435C127.951 27.54 128.407 27.66 128.803 27.9C129.211 28.128 129.529 28.446 129.757 28.854C129.997 29.25 130.117 29.706 130.117 30.222V30.258C130.117 30.774 129.997 31.236 129.757 31.644C129.529 32.04 129.211 32.358 128.803 32.598C128.407 32.826 127.951 32.94 127.435 32.94H117.283C116.767 32.94 116.311 32.826 115.915 32.598C115.507 32.358 115.189 32.04 114.961 31.644C114.721 31.236 114.601 30.774 114.601 30.258V30.222ZM124.708 30.222C124.708 29.706 124.828 29.25 125.068 28.854C125.296 28.446 125.614 28.128 126.022 27.9C126.418 27.66 126.874 27.54 127.39 27.54H137.542C138.058 27.54 138.514 27.66 138.91 27.9C139.318 28.128 139.636 28.446 139.864 28.854C140.104 29.25 140.224 29.706 140.224 30.222V30.258C140.224 30.774 140.104 31.236 139.864 31.644C139.636 32.04 139.318 32.358 138.91 32.598C138.514 32.826 138.058 32.94 137.542 32.94H127.39C126.874 32.94 126.418 32.826 126.022 32.598C125.614 32.358 125.296 32.04 125.068 31.644C124.828 31.236 124.708 30.774 124.708 30.258V30.222ZM134.816 30.222C134.816 29.706 134.936 29.25 135.176 28.854C135.404 28.446 135.722 28.128 136.13 27.9C136.526 27.66 136.982 27.54 137.498 27.54H147.65C148.166 27.54 148.622 27.66 149.018 27.9C149.426 28.128 149.744 28.446 149.972 28.854C150.212 29.25 150.332 29.706 150.332 30.222V30.258C150.332 30.774 150.212 31.236 149.972 31.644C149.744 32.04 149.426 32.358 149.018 32.598C148.622 32.826 148.166 32.94 147.65 32.94H137.498C136.982 32.94 136.526 32.826 136.13 32.598C135.722 32.358 135.404 32.04 135.176 31.644C134.936 31.236 134.816 30.774 134.816 30.258V30.222Z" fill="#00C692"/>
</svg>
