<svg width="53" height="32" viewBox="0 0 53 32" fill="none" xmlns="http://www.w3.org/2000/svg">
<g id="Frame" clip-path="url(#clip0_91_1788)">
<g id="Group">
<path id="Vector" d="M21.6157 16C21.6157 11.3684 23.4863 7.36842 26.6039 4.42105C23.6941 1.68421 19.9529 0 15.7961 0C7.06667 0 0 7.1579 0 16C0 24.8421 7.06667 32 15.7961 32C19.9529 32 23.6941 30.3158 26.6039 27.5789C23.4863 24.6316 21.6157 20.6316 21.6157 16Z" fill="#FF6533"/>
<path id="Vector_2" d="M37.4118 0C33.2549 0 29.5137 1.68421 26.6039 4.42105C29.7216 7.36842 31.5922 11.3684 31.5922 16C31.5922 20.6316 29.7216 24.6316 26.6039 27.5789C29.5137 30.3158 33.2549 32 37.4118 32C46.1412 32 53.2079 24.8421 53.2079 16C53.2079 7.1579 45.9334 0 37.4118 0Z" fill="#FFBC00"/>
<path id="Vector_3" d="M31.5921 16C31.5921 11.3684 29.7215 7.36839 26.6039 4.42102C23.4863 7.36839 21.6157 11.3684 21.6157 16C21.6157 20.6315 23.4863 24.6315 26.6039 27.5789C29.5137 24.6315 31.5921 20.6315 31.5921 16Z" fill="#FF6533"/>
</g>
</g>
<defs>
<clipPath id="clip0_91_1788">
<rect width="53" height="32" fill="white"/>
</clipPath>
</defs>
</svg>
