<svg width="107" height="32" viewBox="0 0 107 32" fill="none" xmlns="http://www.w3.org/2000/svg">
<g id="Group 147">
<path id="Vector" d="M39.16 31.1621L44.5213 1.00525H52.8982L47.7045 31.1621H39.16Z" fill="#4C6DE6"/>
<path id="Vector_2" d="M39.16 31.1621L46.0291 1.00525H52.8982L47.7045 31.1621H39.16Z" fill="#3A4CBE"/>
<path id="Vector_3" d="M78.0286 1.3403C76.3533 0.670151 73.6727 0 70.3219 0C61.945 0 55.9136 4.18845 55.9136 10.2198C55.9136 14.7433 60.1021 17.0889 63.4528 18.5967C66.8036 20.1046 67.8088 21.1098 67.8088 22.4501C67.8088 24.4605 65.1282 25.4658 62.7827 25.4658C59.4319 25.4658 57.589 24.9632 54.7409 23.7904L53.5681 23.2878L52.3953 30.1568C54.4058 30.9945 58.0916 31.8322 61.945 31.8322C70.8245 31.8322 76.6883 27.6438 76.6883 21.2773C76.6883 17.759 74.5103 15.0784 69.4842 12.9004C66.4685 11.3926 64.6256 10.5549 64.6256 9.04705C64.6256 7.70675 66.1334 6.36644 69.4842 6.36644C72.3324 6.36644 74.3428 6.86906 75.8507 7.53921L76.6883 7.87428L78.0286 1.3403Z" fill="#4C6DE6"/>
<path id="Vector_4" d="M78.0286 1.3403C76.3533 0.670151 73.6727 0 70.3219 0C61.945 0 57.4215 4.18845 57.4215 10.2198C57.4215 14.7433 60.1021 17.0889 63.4528 18.5967C66.8036 20.1046 67.8088 21.1098 67.8088 22.4501C67.8088 24.4605 65.1282 25.4658 62.7827 25.4658C59.4319 25.4658 57.589 24.9632 54.7409 23.7904L53.5681 23.2878L52.3953 30.1568C54.4058 30.9945 58.0916 31.8322 61.945 31.8322C70.8245 31.8322 76.6883 27.6438 76.6883 21.2773C76.6883 17.759 74.5103 15.0784 69.4842 12.9004C66.4685 11.3926 64.6256 10.5549 64.6256 9.04705C64.6256 7.70675 66.1334 6.36644 69.4842 6.36644C72.3324 6.36644 74.3428 6.86906 75.8507 7.53921L76.6883 7.87428L78.0286 1.3403Z" fill="#3A4CBE"/>
<path id="Vector_5" d="M92.4378 1.00525C90.4273 1.00525 88.9195 1.17279 88.0818 3.18325L75.5164 31.1621H84.5635L86.2388 26.136H96.9613L97.9665 31.1621H106.008L98.9717 1.00525H92.4378ZM88.5844 21.1098C89.087 19.602 91.9351 12.2303 91.9351 12.2303C91.9351 12.2303 92.6053 10.3874 93.1079 9.21461L93.6105 12.0628C93.6105 12.0628 95.2859 19.602 95.621 21.2774H88.5844V21.1098Z" fill="#4C6DE6"/>
<path id="Vector_6" d="M94.4482 1.00525C92.4377 1.00525 90.9299 1.17279 90.0922 3.18325L75.5164 31.1621H84.5635L86.2388 26.136H96.9613L97.9665 31.1621H106.008L98.9717 1.00525H94.4482ZM88.5844 21.1098C89.2545 19.4344 91.9351 12.2303 91.9351 12.2303C91.9351 12.2303 92.6053 10.3874 93.1079 9.21461L93.6105 12.0628C93.6105 12.0628 95.2859 19.602 95.621 21.2774H88.5844V21.1098Z" fill="#3A4CBE"/>
<path id="Vector_7" d="M23.7463 22.1151L22.9086 17.7591C21.4007 12.733 16.5421 7.20422 11.1809 4.52361L18.7201 31.3297H27.7672L41.3378 1.17285H32.2907L23.7463 22.1151Z" fill="#4C6DE6"/>
<path id="Vector_8" d="M23.7463 22.1151L22.9086 17.7591C21.4007 12.733 16.5421 7.20422 11.1809 4.52361L18.7201 31.3297H27.7672L41.3378 1.17285H33.9661L23.7463 22.1151Z" fill="#3A4CBE"/>
<path id="Vector_9" d="M0.458984 1.00525L1.96683 1.34033C12.6893 3.8534 20.0609 10.2198 22.9091 17.7591L19.8934 3.51832C19.3908 1.50786 17.8829 1.00525 16.04 1.00525H0.458984Z" fill="#FFBC00"/>
<path id="Vector_10" d="M0.458984 1.00525C11.1814 3.51832 20.0609 10.0523 22.9091 17.5915L20.0609 5.69631C19.5583 3.68586 17.8829 2.51309 16.04 2.51309L0.458984 1.00525Z" fill="#FFBC00"/>
<g id="Group">
<path id="Vector_11" d="M32.1232 21.1102L26.4269 15.414L23.7463 21.7804L23.0762 17.5919C21.5683 12.5658 16.7097 7.03705 11.3485 4.35645L18.8877 31.1625H27.9348L32.1232 21.1102Z" fill="#1131A8"/>
<path id="Vector_12" d="M47.7044 31.1617L40.5002 23.79L39.1599 31.1617H47.7044Z" fill="#1131A8"/>
<path id="Vector_13" d="M66.971 20.7744C67.6412 21.4446 67.9762 21.9472 67.8087 22.6173C67.8087 24.6278 65.1281 25.633 62.7826 25.633C59.4318 25.633 57.5889 25.1304 54.7407 23.9576L53.568 23.455L52.3952 30.3241C54.4057 31.1618 58.0915 31.9995 61.9449 31.9995C67.3061 31.9995 71.6621 30.4916 74.1752 27.811L66.971 20.7744Z" fill="#1131A8"/>
<path id="Vector_14" d="M76.6884 31.1623H84.5626L86.238 26.1362H96.9605L97.9657 31.1623H106.008L103.159 18.932L93.1071 9.21484L93.6097 11.8954C93.6097 11.8954 95.2851 19.4347 95.6201 21.11H88.5836C89.2537 19.4347 91.9343 12.2305 91.9343 12.2305C91.9343 12.2305 92.6045 10.3876 93.1071 9.21484" fill="#1131A8"/>
</g>
<path id="Vector_15" d="M0.458984 1.00525C11.1814 3.51832 20.0609 10.0523 22.9091 17.5915L20.8986 11.0575C20.396 9.04707 19.7259 7.03662 17.3803 6.19893L0.458984 1.00525Z" fill="#FF6533"/>
</g>
</svg>
