<svg width="32" height="32" viewBox="0 0 32 32" fill="none" xmlns="http://www.w3.org/2000/svg">
<g id="006-test-tube">
<g id="layer1">
<path id="path9335" d="M8.498 1.49799C7.6755 1.49799 7 2.17748 7 2.99998C7 3.64999 7.4245 4.2035 8.008 4.409V6.82399V8.49999H2C1.4545 8.49999 1 8.95449 1 9.49999V10.5C1 11.0455 1.4545 11.5 2 11.5H3V27.7615C2.615 27.96 2.2615 28.2565 1.957 28.608C1.404 29.2475 1.001 30.095 1.001 30.9995C1.002 31.274 1.2245 31.4965 1.499 31.4975H30.499C30.775 31.4985 31 31.2755 31.001 30.9995C31.001 30.0965 30.5995 29.257 30.049 28.6225C29.7435 28.27 29.3875 27.974 29 27.777V11.4995H30C30.5455 11.4995 31 11.045 31 10.4995V9.4995C31 8.954 30.5455 8.4995 30 8.4995H23.997V8.0015V7.7905L23.995 7.7885V4.40749C24.5765 4.20099 25 3.648 25 2.9995C25 2.177 24.3235 1.4975 23.501 1.4975H18.5C17.6775 1.4975 17.001 2.177 17.001 2.9995C17.001 3.6495 17.426 4.20299 18.009 4.40849V8.4995H13.9985V8.0015V7.7905V4.40649C14.5775 4.19849 14.9985 3.6465 14.9985 2.9995C14.9985 2.177 14.323 1.4975 13.5005 1.4975L8.498 1.49799ZM12.998 4.49899V7.16399C12.9805 7.15849 12.968 7.15099 12.95 7.14499C12.3935 6.98599 11.584 7.01599 10.735 7.59149C10.1005 8.02099 9.661 7.9955 9.3395 7.905C9.195 7.8645 9.0875 7.8105 9.0075 7.7625V4.50949L12.998 4.49899ZM22.999 4.49899V7.16399C22.982 7.15849 22.9695 7.15099 22.952 7.14499C22.3955 6.98599 21.583 7.01599 20.734 7.59149C20.0995 8.02099 19.664 7.9955 19.3425 7.905C19.197 7.864 19.0885 7.80949 19.0085 7.76149V4.50949L22.999 4.49899ZM23.997 19.4985V11.4995H26V27.521L6 27.502V11.5H8.008V19.51V19.511C8.008 24.2795 13.998 24.324 13.998 19.499V11.5H18.0085V19.5105C18.059 24.3455 23.9925 24.279 23.997 19.4985Z" fill="#00C692"/>
</g>
</g>
</svg>
