<svg width="32" height="32" viewBox="0 0 32 32" fill="none" xmlns="http://www.w3.org/2000/svg">
<g id="003-clinic-1" clip-path="url(#clip0_110_92)">
<g id="Clinic">
<path id="Vector" d="M16.6667 16H22V26.6667H16.6667V16Z" fill="#00C692"/>
<path id="Vector_2" d="M30 26.6667V12H2V26.6667H8.66667V15.3333C8.66667 15.1565 8.73691 14.987 8.86193 14.8619C8.98695 14.7369 9.15652 14.6667 9.33333 14.6667H22.6667C22.8435 14.6667 23.013 14.7369 23.1381 14.8619C23.2631 14.987 23.3333 15.1565 23.3333 15.3333V26.6667H30Z" fill="#00C692"/>
<path id="Vector_3" d="M10 16H15.3333V26.6667H10V16Z" fill="#00C692"/>
<path id="Vector_4" d="M30 7.33335H21.3334V2.00002C21.333 1.64651 21.1924 1.30757 20.9424 1.0576C20.6925 0.807629 20.3535 0.66704 20 0.666687H12C11.6465 0.66704 11.3076 0.807629 11.0576 1.0576C10.8076 1.30757 10.667 1.64651 10.6667 2.00002V7.33335H2.00002C1.64651 7.33371 1.30757 7.4743 1.0576 7.72427C0.807629 7.97424 0.66704 8.31317 0.666687 8.66669V9.33335C0.66704 9.68687 0.807629 10.0258 1.0576 10.2758C1.30757 10.5257 1.64651 10.6663 2.00002 10.6667H30C30.3535 10.6663 30.6925 10.5257 30.9424 10.2758C31.1924 10.0258 31.333 9.68687 31.3334 9.33335V8.66669C31.333 8.31317 31.1924 7.97424 30.9424 7.72427C30.6925 7.4743 30.3535 7.33371 30 7.33335ZM18 6.00002H16.6667V7.33335C16.6667 7.51016 16.5964 7.67973 16.4714 7.80476C16.3464 7.92978 16.1768 8.00002 16 8.00002C15.8232 8.00002 15.6536 7.92978 15.5286 7.80476C15.4036 7.67973 15.3334 7.51016 15.3334 7.33335V6.00002H14C13.8232 6.00002 13.6536 5.92978 13.5286 5.80476C13.4036 5.67973 13.3334 5.51016 13.3334 5.33335C13.3334 5.15654 13.4036 4.98697 13.5286 4.86195C13.6536 4.73693 13.8232 4.66669 14 4.66669H15.3334V3.33335C15.3334 3.15654 15.4036 2.98697 15.5286 2.86195C15.6536 2.73693 15.8232 2.66669 16 2.66669C16.1768 2.66669 16.3464 2.73693 16.4714 2.86195C16.5964 2.98697 16.6667 3.15654 16.6667 3.33335V4.66669H18C18.1768 4.66669 18.3464 4.73693 18.4714 4.86195C18.5964 4.98697 18.6667 5.15654 18.6667 5.33335C18.6667 5.51016 18.5964 5.67973 18.4714 5.80476C18.3464 5.92978 18.1768 6.00002 18 6.00002Z" fill="#00C692"/>
<path id="Vector_5" d="M30.6667 28H1.33335C1.15654 28 0.986973 28.0702 0.861949 28.1953C0.736925 28.3203 0.666687 28.4899 0.666687 28.6667V29.3333C0.667269 29.8636 0.87817 30.372 1.25312 30.7469C1.62806 31.1219 2.13643 31.3328 2.66669 31.3333H29.3334C29.8636 31.3328 30.372 31.1219 30.7469 30.7469C31.1219 30.372 31.3328 29.8636 31.3334 29.3333V28.6667C31.3334 28.4899 31.2631 28.3203 31.1381 28.1953C31.0131 28.0702 30.8435 28 30.6667 28Z" fill="#00C692"/>
</g>
</g>
<defs>
<clipPath id="clip0_110_92">
<rect width="32" height="32" fill="white"/>
</clipPath>
</defs>
</svg>
