<svg width="25" height="25" viewBox="0 0 25 25" fill="none" xmlns="http://www.w3.org/2000/svg">
<path id="Union" fill-rule="evenodd" clip-rule="evenodd" d="M23.9387 1.31371C23.1577 0.53266 21.8913 0.53266 21.1103 1.31371L12.625 9.79899L4.13972 1.31371C3.35867 0.532659 2.09234 0.532659 1.31129 1.31371C0.530244 2.09476 0.530244 3.36109 1.31129 4.14213L9.79657 12.6274L1.31129 21.1127C0.530242 21.8937 0.530243 23.1601 1.31129 23.9411C2.09234 24.7222 3.35867 24.7222 4.13972 23.9411L12.625 15.4558L21.1103 23.9411C21.8913 24.7222 23.1577 24.7222 23.9387 23.9411C24.7198 23.1601 24.7198 21.8937 23.9387 21.1127L15.4534 12.6274L23.9387 4.14214C24.7198 3.36109 24.7198 2.09476 23.9387 1.31371Z" fill="white"/>
</svg>
