<svg width="29" height="32" viewBox="0 0 29 32" fill="none" xmlns="http://www.w3.org/2000/svg">
<g id="Group">
<path id="Vector" d="M8.8125 5.0625H14.0625C15.0981 5.0625 15.9375 4.22306 15.9375 3.1875V1.875C15.9375 0.839437 15.0981 0 14.0625 0H8.8125C7.77694 0 6.9375 0.839437 6.9375 1.875V3.1875C6.9375 4.22306 7.77694 5.0625 8.8125 5.0625Z" fill="#00C692"/>
<path id="Vector_2" d="M20.0625 2.5625H17.8125V3.1875C17.8125 5.255 16.13 6.9375 14.0625 6.9375H8.8125C6.745 6.9375 5.0625 5.255 5.0625 3.1875V2.5625H2.8125C1.26188 2.5625 0 3.82438 0 5.375V27.625C0 29.1756 1.26188 30.4375 2.8125 30.4375H18.5506L18.5519 26.4088C18.2806 26.2663 18.0181 26.1081 17.765 25.9375H2.9375C2.42 25.9375 2 25.5175 2 25C2 24.4825 2.42 24.0625 2.9375 24.0625H15.7756C15.2856 23.4206 14.8869 22.7056 14.5975 21.9375H2.9375C2.42 21.9375 2 21.5175 2 21C2 20.4825 2.42 20.0625 2.9375 20.0625H14.1313C14.0406 19.3544 14.0387 18.6494 14.1287 17.9375H2.9375C2.42 17.9375 2 17.5175 2 17C2 16.4825 2.42 16.0625 2.9375 16.0625H14.5931C15.8475 12.7206 19.14 10.445 22.875 10.6362V5.375C22.875 3.82438 21.6131 2.5625 20.0625 2.5625ZM6.4375 12.4375H5.875V13C5.875 13.5175 5.455 13.9375 4.9375 13.9375C4.42 13.9375 4 13.5175 4 13V12.4375H3.4375C2.92 12.4375 2.5 12.0175 2.5 11.5C2.5 10.9825 2.92 10.5625 3.4375 10.5625H4V10C4 9.4825 4.42 9.0625 4.9375 9.0625C5.455 9.0625 5.875 9.4825 5.875 10V10.5625H6.4375C6.955 10.5625 7.375 10.9825 7.375 11.5C7.375 12.0175 6.955 12.4375 6.4375 12.4375ZM14.9375 12.4375H10.4375C9.92 12.4375 9.5 12.0175 9.5 11.5C9.5 10.9825 9.92 10.5625 10.4375 10.5625H14.9375C15.455 10.5625 15.875 10.9825 15.875 11.5C15.875 12.0175 15.455 12.4375 14.9375 12.4375Z" fill="#00C692"/>
<path id="Vector_3" d="M20.4269 27.1213V30C20.4269 31.1044 21.3225 32 22.4269 32C23.5319 32 24.4269 31.1044 24.4269 30V27.1244C23.1522 27.4372 21.7687 27.4528 20.4269 27.1213Z" fill="#00C692"/>
<path id="Vector_4" d="M22.4323 25.4896C26.0193 25.4896 28.9271 22.5818 28.9271 18.9948C28.9271 15.4078 26.0193 12.5 22.4323 12.5C18.8453 12.5 15.9375 15.4078 15.9375 18.9948C15.9375 22.5818 18.8453 25.4896 22.4323 25.4896Z" fill="#00C692"/>
</g>
</svg>
