<svg width="32" height="32" viewBox="0 0 32 32" fill="none" xmlns="http://www.w3.org/2000/svg">
<g id="011-doctor-1">
<path id="Vector" fill-rule="evenodd" clip-rule="evenodd" d="M11.908 12.6074L11.9061 12.6162C9.95794 12.7181 8.96976 8.50436 11.3395 9.3848C11.7258 7.66873 12.1546 6.4603 12.6261 5.75911C15.398 9.18299 18.0179 10.9445 20.486 11.0439C20.5748 10.5289 20.6345 9.97611 20.6605 9.3848C23.0302 8.50436 22.042 12.7181 20.0939 12.6162L20.0924 12.6077C18.4153 17.5066 13.5862 17.5056 11.908 12.6074ZM16 31.619C11.6428 31.619 7.90407 30.5569 7.10363 29.0907L7.56194 23.6387C7.58544 23.3524 7.37251 23.1011 7.08613 23.0776C6.79976 23.054 6.54851 23.2669 6.52482 23.5533L6.05007 29.2016L6.09926 29.2027C4.87707 29.1853 3.70595 28.613 2.94238 27.6125C3.47213 24.7775 3.92195 21.5424 5.89363 19.6702C7.0027 18.617 8.79713 18.1074 10.484 17.7124V21.4342C9.87101 21.4744 9.31701 21.7413 8.90563 22.1519L8.90457 22.153L8.90345 22.1541C8.45695 22.6013 8.18044 23.2172 8.18044 23.8939V25.5845C8.18044 25.8722 8.41344 26.1052 8.70094 26.1052C8.98844 26.1052 9.22151 25.8721 9.22151 25.5845V23.8939C9.22151 23.5007 9.38069 23.1449 9.63763 22.888L9.63963 22.8862C9.89644 22.6294 10.2523 22.47 10.6455 22.47H11.3638C11.7568 22.47 12.1128 22.6294 12.3695 22.8862V22.888C12.6276 23.1462 12.7877 23.5023 12.7877 23.8939V25.5424C12.7877 25.8298 13.0208 26.0631 13.3083 26.0631C13.5957 26.0631 13.8289 25.8298 13.8289 25.5424V23.8939C13.8289 23.2149 13.5521 22.5984 13.1058 22.152L13.1046 22.153C12.6931 21.7419 12.1386 21.4744 11.5251 21.4342V17.4744C11.8044 17.4104 12.0754 17.3474 12.334 17.2835L16 27.6077V31.619ZM19.6659 17.2834C19.9245 17.3477 20.1955 17.4107 20.4747 17.4743V21.7399C20.3507 21.7995 20.2384 21.8794 20.142 21.9757L20.1399 21.9779C19.9212 22.1969 19.7856 22.4987 19.7856 22.8312C19.7856 23.1638 19.9211 23.4657 20.1399 23.6847L20.142 23.6864C20.3608 23.9051 20.6628 24.0408 20.9953 24.0408C21.3279 24.0408 21.6298 23.9055 21.8488 23.6864L21.8508 23.6847C22.0696 23.4657 22.2053 23.1638 22.2053 22.8312C22.2053 22.497 22.0696 22.1947 21.8508 21.9757H21.8486C21.7523 21.8794 21.6398 21.7995 21.5158 21.7399V17.7124C23.2027 18.1074 24.9963 18.6174 26.1064 19.6702C28.078 21.5424 28.5279 24.7775 29.0576 27.6125C28.3046 28.5993 27.1553 29.1694 25.9516 29.2017L25.4768 23.5534C25.4532 23.2669 25.2019 23.0541 24.9156 23.0777C24.6291 23.1012 24.4161 23.3524 24.4398 23.6387L24.8981 29.0911L24.899 29.0914L24.8964 29.0908C24.1607 30.4385 20.9413 31.4449 17.041 31.5987V27.4282L16.0839 24.7327L19.6659 17.2834ZM21.0581 16.5357C23.3958 15.4302 24.7076 13.6146 24.3731 11.0574C23.8706 6.70973 20.7251 0.376735 16 0.380922C11.2749 0.376735 8.12932 6.70973 7.62695 11.0574C7.2907 13.6259 8.66513 15.419 11.0423 16.512L11.5252 16.399V16.4059C11.712 16.3627 11.8987 16.3185 12.0848 16.2724L12.3826 16.199L12.4396 16.1264C12.4915 16.0611 12.5222 15.8985 12.5403 15.7325C13.4464 16.6905 14.6401 17.3236 16.0017 17.3234C17.3478 17.323 18.5499 16.6979 19.4603 15.7341C19.4783 15.9009 19.5092 16.0635 19.5608 16.1273L19.6185 16.1985L19.9176 16.2731C20.1028 16.3192 20.2888 16.3632 20.4748 16.4062V16.399L21.0581 16.5357Z" fill="#00C692"/>
</g>
</svg>
