<svg width="50" height="50" viewBox="0 0 50 50" fill="none" xmlns="http://www.w3.org/2000/svg">
<g id="gastroenterologist 1" clip-path="url(#clip0_114_217)">
<g id="Group">
<path id="Vector" d="M5.70588 14.0604L5.63617 18.4916C5.62622 18.4916 -1.05547 15.9126 5.70588 14.0604Z" fill="#EDB288"/>
<path id="Vector_2" d="M26.5774 18.4916C26.5774 18.4916 33.269 15.9126 26.5077 14.0604L26.5774 18.4916Z" fill="#EDB288"/>
</g>
<path id="Vector_3" d="M38.6063 27.2346C44.6408 27.2944 49.4802 32.2334 49.4305 38.2679C49.3807 44.3023 44.4316 49.1418 38.3972 49.092C36.2165 49.092 34.0855 48.4646 32.2632 47.2697L31.4268 46.5926L31.9944 46.3337L32.2533 44.5114C32.4026 43.6351 33.2391 43.0476 34.1154 43.197C34.6531 43.2866 35.1012 43.6451 35.3203 44.143C35.7783 45.318 36.9235 46.0847 38.1781 46.0648H38.2777C40.3888 46.0051 42.2907 44.8101 43.2765 42.948L45.0988 39.4628C46.3834 36.7344 45.2084 33.4782 42.4799 32.1936C42.47 32.1836 42.46 32.1836 42.45 32.1737C41.9123 31.8949 41.3348 31.7355 40.7373 31.7057C38.7059 31.7555 38.3972 30.3016 38.6063 28.9474V27.2346Z" fill="#00ACEA"/>
<path id="Vector_4" d="M42.47 32.1836C45.2084 33.4482 46.4033 36.6945 45.1387 39.4329C45.1287 39.4428 45.1287 39.4528 45.1187 39.4627L43.2965 42.948C42.3206 44.82 40.4087 46.005 38.2976 46.0648H38.1981C36.9334 46.0847 35.7982 45.3179 35.3402 44.1429C34.9917 43.3264 34.0357 42.948 33.2192 43.3065C32.7213 43.5255 32.3628 43.9736 32.2732 44.5113L32.0143 46.3336L31.4467 46.5925C30.7795 46.0648 30.182 45.4573 29.6742 44.7703L29.9829 43.6251C30.4011 40.8668 33.2092 40.7075 33.7768 40.7075H33.8764C35.1211 40.6079 36.2663 40.6577 36.9932 40.1399C37.8695 39.6121 38.4171 38.6661 38.447 37.6405C38.3873 36.4157 37.7699 35.2904 36.7841 34.5735C36.1567 34.1453 35.7285 33.498 35.5891 32.7512C35.3501 32.0342 35.3003 31.2575 35.4298 30.5107L35.7385 27.9615L35.6389 27.593C36.5451 27.364 37.4712 27.2445 38.3972 27.2246H38.6063V28.9374C38.3972 30.2916 38.7059 31.7454 40.7373 31.6957C41.3447 31.7454 41.9322 31.9048 42.47 32.1836ZM43.6649 37.3318C44.0931 37.3318 44.4416 36.9833 44.4416 36.5551C44.4416 36.1269 44.0931 35.7784 43.6649 35.7784C43.2367 35.7784 42.8882 36.1269 42.8882 36.5551C42.8882 36.9833 43.2367 37.3318 43.6649 37.3318ZM42.2609 40.0901C42.689 40.0901 43.0376 39.7416 43.0376 39.3134C43.0376 38.8852 42.689 38.5367 42.2609 38.5367C41.8227 38.5367 41.4642 38.8752 41.4642 39.3134C41.4642 39.7515 41.8227 40.11 42.2609 40.0901ZM41.275 42.0119C41.7032 42.0119 42.0517 41.6634 42.0517 41.2352C42.0517 40.807 41.7032 40.4585 41.275 40.4585C40.8468 40.4585 40.4983 40.807 40.4983 41.2352C40.4983 41.6634 40.8369 42.0119 41.275 42.0119ZM40.6477 34.7328C41.0759 34.7328 41.4244 34.3843 41.4244 33.9561C41.4244 33.5279 41.0759 33.1794 40.6477 33.1794C40.2295 33.279 39.9805 33.7271 40.0801 34.1453C40.1498 34.4141 40.3689 34.6332 40.6477 34.7328ZM40.3888 37.6405C40.817 37.6405 41.1655 37.2919 41.1655 36.8638C41.1655 36.4356 40.817 36.0871 40.3888 36.0871C39.9706 36.1866 39.7216 36.6347 39.8212 37.053C39.8909 37.3318 40.11 37.5508 40.3888 37.6405ZM39.4528 44.6707C39.8809 44.6707 40.2295 44.3221 40.2295 43.894C40.2295 43.4658 39.8809 43.1173 39.4528 43.1173C39.0246 43.1173 38.676 43.4658 38.676 43.894C38.676 44.3221 39.0146 44.6707 39.4528 44.6707ZM39.2934 41.7032C39.7216 41.7032 40.0701 41.3547 40.0701 40.9265C40.0701 40.4984 39.7216 40.1498 39.2934 40.1498C38.8652 40.1498 38.5167 40.4984 38.5167 40.9265C38.5167 41.3547 38.8652 41.7032 39.2934 41.7032ZM36.9533 43.4658C37.3815 43.4658 37.7301 43.1173 37.7301 42.6891C37.7301 42.2609 37.3815 41.9124 36.9533 41.9124C36.5252 41.9124 36.1766 42.2609 36.1766 42.6891C36.1766 43.1173 36.5252 43.4658 36.9533 43.4658Z" fill="#00EFD1"/>
<g id="Group_2">
<path id="Vector_5" d="M43.655 35.7684C44.0832 35.7684 44.4317 36.117 44.4317 36.5451C44.4317 36.9733 44.0832 37.3218 43.655 37.3218C43.2268 37.3218 42.8783 36.9733 42.8783 36.5451C42.8783 36.117 43.2169 35.7684 43.655 35.7684Z" fill="#083863"/>
<path id="Vector_6" d="M42.251 38.5267C42.6791 38.5267 43.0277 38.8753 43.0277 39.3034C43.0277 39.7316 42.6791 40.0802 42.251 40.0802C41.8228 40.0802 41.4742 39.7316 41.4742 39.3034C41.4742 38.8753 41.8128 38.5267 42.251 38.5267Z" fill="#083863"/>
<path id="Vector_7" d="M41.2552 40.4486C41.6834 40.4486 42.0319 40.7971 42.0319 41.2253C42.0319 41.6535 41.6834 42.002 41.2552 42.002C40.827 42.002 40.4785 41.6535 40.4785 41.2253C40.4785 40.7971 40.827 40.4486 41.2552 40.4486Z" fill="#083863"/>
<path id="Vector_8" d="M40.6378 33.1694C41.0659 33.1694 41.4145 33.518 41.4145 33.9461C41.4145 34.3743 41.0659 34.7229 40.6378 34.7229C40.2096 34.7229 39.861 34.3743 39.861 33.9461C39.8511 33.518 40.1996 33.1694 40.6378 33.1694Z" fill="#083863"/>
<path id="Vector_9" d="M40.369 36.087C40.7972 36.087 41.1457 36.4356 41.1457 36.8637C41.1457 37.2919 40.7972 37.6405 40.369 37.6405C39.9408 37.6405 39.5923 37.2919 39.5923 36.8637C39.5923 36.4356 39.9408 36.087 40.369 36.087Z" fill="#083863"/>
<path id="Vector_10" d="M39.433 43.1073C39.8611 43.1073 40.2097 43.4558 40.2097 43.884C40.2097 44.3122 39.8611 44.6607 39.433 44.6607C39.0048 44.6607 38.6562 44.3122 38.6562 43.884C38.6562 43.4558 39.0048 43.1073 39.433 43.1073Z" fill="#083863"/>
<path id="Vector_11" d="M39.2835 40.1399C39.7117 40.1399 40.0603 40.4884 40.0603 40.9166C40.0603 41.3448 39.7117 41.6933 39.2835 41.6933C38.8554 41.6933 38.5068 41.3448 38.5068 40.9166C38.5068 40.4884 38.8454 40.1399 39.2835 40.1399Z" fill="#083863"/>
</g>
<path id="Vector_12" d="M38.4471 37.6404C38.4172 38.6661 37.8696 39.6121 36.9933 40.1398C36.2664 40.6576 35.1212 40.6079 33.8765 40.7074H33.7769C33.2093 40.7074 30.3913 40.8668 29.983 43.6251L29.6544 44.7702C28.2105 42.8683 27.4437 40.5481 27.4736 38.1582C27.4637 36.0472 28.081 33.9859 29.2461 32.2234C30.7099 29.9231 33.0002 28.2701 35.649 27.593L35.7486 27.9615L35.4399 30.5107C35.3104 31.2575 35.3602 32.0242 35.5992 32.7512C35.7386 33.488 36.1767 34.1453 36.7941 34.5734C37.77 35.2904 38.3874 36.4256 38.4471 37.6404Z" fill="#00ACEA"/>
<path id="Vector_13" d="M36.9435 41.9124C37.3716 41.9124 37.7202 42.2609 37.7202 42.6891C37.7202 43.1172 37.3716 43.4658 36.9435 43.4658C36.5153 43.4658 36.1667 43.1172 36.1667 42.6891C36.1667 42.2609 36.5053 41.9124 36.9435 41.9124Z" fill="#083863"/>
<path id="Vector_14" d="M29.6543 44.7703C30.1621 45.4474 30.7596 46.0648 31.4268 46.5925L32.2632 47.2697V47.5286H16.0818V34.215L19.7761 30.7298H24.8247C26.3483 30.7198 27.832 31.2077 29.0369 32.1338L29.246 32.2334C28.0809 33.986 27.4636 36.0572 27.4735 38.1682C27.4436 40.5482 28.2104 42.8683 29.6543 44.7703ZM24.765 38.8354C24.7351 37.5011 23.6597 36.4157 22.3154 36.3858C20.9611 36.3858 19.8658 37.4812 19.8658 38.8354C19.8956 40.1698 20.9711 41.2552 22.3154 41.285C22.9626 41.2751 23.58 41.0162 24.0281 40.5581C24.5061 40.11 24.7749 39.4926 24.765 38.8354Z" fill="#D4E1F4"/>
<path id="Vector_15" d="M28.8279 7.98614H14.409C12.5469 7.90648 11.0731 6.36302 11.0831 4.50091C11.0831 3.97315 11.2125 3.45534 11.4515 2.98732C11.6307 2.62884 11.8598 2.29028 12.1286 2.0015C12.7958 1.35425 13.692 0.995765 14.628 1.01568H21.8076C25.6613 0.985807 28.798 4.08268 28.8279 7.93635C28.8279 7.95627 28.8279 7.97618 28.8279 7.98614Z" fill="#4B5D63"/>
<path id="Vector_16" d="M26.3285 7.98621V18.2826C26.3484 22.5843 23.6896 26.438 19.6667 27.9615C18.5016 28.3798 17.2669 28.5989 16.0221 28.5889C14.9268 28.6088 13.8314 28.4296 12.7958 28.0711C8.57371 26.677 5.72578 22.7337 5.71582 18.2925V12.1585C5.71582 12.1585 10.6549 12.9352 14.399 7.99616H26.3285V7.98621Z" fill="#F7CAA5"/>
<path id="Vector_17" d="M24.0381 37.1227C24.5161 37.5608 24.775 38.1882 24.765 38.8354C24.775 39.4827 24.5061 40.11 24.0381 40.5482C23.58 41.0062 22.9626 41.2651 22.3254 41.2751C20.991 41.2452 19.9056 40.1698 19.8757 38.8255C19.8757 37.4712 20.9711 36.3759 22.3254 36.3759C22.9726 36.3858 23.59 36.6447 24.0381 37.1227Z" fill="#00EFD1"/>
<path id="Vector_18" d="M19.7762 30.6203V30.7199L16.0819 34.2051L12.756 30.7199V28.0711C13.7916 28.4296 14.8869 28.6088 15.9823 28.5889C17.227 28.5988 18.4518 28.3897 19.6269 27.9615L19.7264 28.1707L19.7762 30.6203Z" fill="#EDB288"/>
<path id="Vector_19" d="M8.11558 30.7198H12.746L16.0719 34.2051V47.5187H0.627319V37.7401C0.627319 33.8566 3.77398 30.7198 7.64757 30.7198C7.66748 30.7198 7.67744 30.7198 7.69736 30.7198H8.11558Z" fill="#D4E1F4"/>
<path id="Vector_20" d="M14.4089 7.98609C10.6648 12.9252 5.72571 12.1485 5.72571 12.1485V7.98609C5.72571 7.98609 6.45263 2.8877 11.4514 2.98728C11.2125 3.4553 11.093 3.9731 11.083 4.50087C11.083 6.37293 12.5468 7.90643 14.4089 7.98609Z" fill="#4B5D63"/>
<g id="Group_3">
<path id="Vector_21" d="M11.6605 17.6652C10.9834 17.6552 10.3362 17.3963 9.83827 16.9382C9.37025 16.4503 9.10139 15.7931 9.11135 15.116V14.6977C9.11135 14.2695 9.45987 13.921 9.88806 13.921C10.3162 13.921 10.6648 14.2695 10.6648 14.6977V15.116C10.6648 15.3948 10.7843 15.6537 10.9735 15.8429C11.3718 16.2213 11.9991 16.2014 12.3676 15.803C12.5368 15.6138 12.6364 15.3749 12.6364 15.116V14.6977C12.6364 14.2695 12.9849 13.921 13.4131 13.921C13.8413 13.921 14.1898 14.2695 14.1898 14.6977V15.116C14.2097 16.53 13.0646 17.6652 11.6605 17.6652Z" fill="#083863"/>
<path id="Vector_22" d="M20.4434 17.6652C19.7663 17.6552 19.119 17.3963 18.6211 16.9382C18.1531 16.4503 17.8842 15.7931 17.8942 15.116V14.6977C17.8942 14.2695 18.2427 13.921 18.6709 13.921C19.0991 13.921 19.4476 14.2695 19.4476 14.6977V15.116C19.4476 15.3948 19.5671 15.6537 19.7563 15.8429C20.1546 16.2213 20.7819 16.2014 21.1504 15.803C21.3197 15.6138 21.4193 15.3749 21.4193 15.116V14.6977C21.4193 14.2695 21.7678 13.921 22.196 13.921C22.6241 13.921 22.9727 14.2695 22.9727 14.6977V15.116C22.9926 16.53 21.8574 17.6652 20.4434 17.6652Z" fill="#083863"/>
<path id="Vector_23" d="M38.6562 26.5077H38.3973C37.4115 26.5276 36.4356 26.6471 35.4796 26.8762C32.9205 27.5234 30.6501 29.0071 29.027 31.0883C27.7723 30.2518 26.3185 29.7838 24.8148 29.734H20.294V28.4395C24.1775 26.916 26.7865 23.2416 26.9558 19.0792H27.1151C28.6984 19.0892 29.9829 17.8146 29.9929 16.2313C29.9929 15.4944 29.7141 14.7774 29.1963 14.2397C28.6287 13.7119 27.8918 13.4132 27.1151 13.4032H27.0653V8.92224H28.8378C29.2958 8.84258 29.6245 8.44426 29.6145 7.9862C29.6145 3.65456 26.1392 0.139459 21.8076 0.0797119H14.5782C13.443 0.109585 12.3576 0.577602 11.561 1.38418L10.9934 2.16089C6.83105 2.37001 5.427 5.95481 5.1681 7.88663V13.4032H4.95898C4.20219 13.4132 3.47527 13.7119 2.92759 14.2397C2.39983 14.7774 2.1011 15.5143 2.09114 16.2711C2.12101 17.8345 3.39561 19.0792 4.94903 19.0792H4.99882C5.19797 21.7479 6.33316 24.2573 8.22514 26.1592C9.24084 27.2844 10.5354 28.1209 11.9693 28.6088V29.734H7.69738C3.37569 29.734 0 33.4284 0 37.7501V47.5286C0 47.9966 0.209114 48.4647 0.627341 48.4647H32.2533L32.4624 48.3651C38.0687 51.5815 45.2184 49.6496 48.4447 44.0434C51.6611 38.4372 49.7293 31.2875 44.123 28.0611C42.4601 27.1052 40.578 26.5675 38.6562 26.5077ZM5.20793 17.5059H5.0486C4.32168 17.5357 3.7043 16.9881 3.64455 16.2611C3.62464 15.9126 3.76405 15.574 4.01299 15.3251C4.31173 15.0961 4.68017 14.9766 5.0486 14.9567H5.20793V17.5059ZM29.8634 32.6517C31.0584 30.8194 32.8109 29.4054 34.8623 28.6486L34.6531 30.4211C34.5436 31.2775 34.6034 32.1339 34.8125 32.9703C35.0415 33.8665 35.5792 34.6632 36.326 35.2108C37.1127 35.7884 37.6604 36.6846 37.6803 37.6604C37.6903 38.4172 37.2422 39.1143 36.585 39.4827C35.9377 39.8412 35.2904 40.0304 34.5536 40.1101C34.3046 40.1399 34.0557 40.1499 33.8864 40.1599H33.7868C32.1239 40.1599 30.0427 40.837 29.3655 42.968C28.6187 41.5042 28.2304 39.881 28.2204 38.238C28.2005 36.2365 28.778 34.3047 29.8634 32.6517ZM27.1549 14.9567C27.4835 14.9567 27.8022 15.0961 28.0412 15.3251C28.3001 15.5641 28.4494 15.9027 28.4594 16.2611C28.4295 16.9781 27.8221 17.5357 27.1051 17.5059H27.0553V14.9567H27.1549ZM12.1286 3.30604C12.268 3.01726 12.4672 2.7484 12.6962 2.52933C13.1742 1.99161 13.8513 1.67296 14.5683 1.64309H21.7976C24.9742 1.64309 27.6229 4.24207 27.9914 7.36882H14.4089C12.9651 7.25928 11.8597 6.05439 11.8597 4.61051C11.8597 4.16241 11.9394 3.71431 12.1286 3.30604ZM6.76135 8.04595C6.76135 7.62772 7.38869 4.4014 10.5055 3.8338C10.4358 4.05287 10.386 4.2819 10.3462 4.51093C10.386 6.28342 11.5013 7.8468 13.1543 8.46418C11.5112 10.2865 9.20101 11.3519 6.75139 11.4316V8.04595H6.76135ZM9.42008 25.0539C7.65755 23.2515 6.7016 20.8118 6.7713 18.2925V13.0348C8.48405 13.0348 11.8697 12.517 14.7873 8.92224H25.5019V18.2826C25.5119 22.2458 23.0623 25.8107 19.3679 27.2346C17.3266 27.9715 15.0861 28.0113 13.0248 27.3342C11.6506 26.8762 10.4159 26.0895 9.42008 25.0539ZM15.0861 46.9013H1.56337V37.7401C1.52354 34.474 4.03291 31.7455 7.28911 31.4966V33.6773C6.55223 33.8864 5.88506 34.2648 5.30751 34.7727C4.58059 35.5096 4.16236 36.5053 4.16236 37.541V41.9622C4.19223 42.4004 4.55071 42.7389 4.99882 42.7389H6.24354C6.67173 42.7389 7.02025 42.3904 7.02025 41.9622C7.02025 41.534 6.67173 41.1855 6.24354 41.1855H5.72573V37.541C5.72573 36.9037 5.98464 36.3062 6.45265 35.878C6.87088 35.4299 7.44843 35.171 8.06582 35.1511C9.37029 35.181 10.4059 36.2464 10.4059 37.541V41.1855H9.72877C9.30058 41.1855 8.95206 41.534 8.95206 41.9622C8.95206 42.3904 9.30058 42.7389 9.72877 42.7389H11.3419C11.7602 42.7389 11.9693 42.3705 11.9693 41.9622V37.541C11.9693 35.6191 10.9337 34.0557 8.85248 33.6873V31.2974H12.3875L15.096 34.5237V46.9013H15.0861ZM16.0221 33.1197L13.5227 30.4112V29.1067C14.3094 29.2561 15.1159 29.3457 15.9126 29.3656C16.8586 29.4054 17.8145 29.2859 18.7207 28.9972V30.3514L16.0221 33.1197ZM16.6494 46.9013V34.5735L20.0849 31.2974H21.3296V35.7187C20.294 36.0871 18.9895 37.3318 18.9895 38.8355C19.0194 39.6918 19.3878 40.4984 20.0251 41.076C20.6226 41.6934 21.4491 42.0319 22.3154 42.012C24.068 42.0419 25.5119 40.6478 25.5418 38.8952C25.5418 38.8753 25.5418 38.8554 25.5418 38.8454C25.5019 37.9791 25.1335 37.1526 24.5061 36.5551C24.0481 36.1369 23.5004 35.8481 22.893 35.7187V31.2974H24.8148C25.9998 31.3273 27.1549 31.6858 28.1407 32.333C27.1549 34.0956 26.6371 36.0871 26.6272 38.1086C26.6272 40.598 27.5134 42.968 28.9174 45.0292C28.9971 45.1388 29.1166 45.3379 29.2261 45.4773C29.6045 45.9354 30.0028 46.3735 30.4211 46.9013H16.6494ZM22.3254 37.1725C23.2116 37.1426 23.9585 37.8397 23.9883 38.7359C23.9883 38.7757 23.9883 38.8056 23.9883 38.8454C23.9883 39.2736 23.8191 39.6819 23.5203 39.9906C22.8631 40.608 21.8375 40.608 21.1802 39.9906C20.523 39.3931 20.4633 38.3774 21.0607 37.7102C21.3794 37.3518 21.8375 37.1526 22.3254 37.1725ZM31.4766 44.4118L31.3173 45.4474L30.5406 44.611L30.7497 43.8343C31.0584 41.7531 34.3942 41.5838 34.5735 41.5639C35.5792 41.4842 36.565 41.2751 37.4612 40.8171C38.5466 40.13 39.2138 38.935 39.2337 37.6405C39.174 36.1767 38.3873 34.8125 37.2023 33.9462C36.7542 33.6176 36.4455 33.1396 36.3161 32.5919C36.1667 31.9646 36.1169 31.3074 36.2165 30.6701C36.3061 30.0726 36.585 28.2802 36.585 28.2802C37.043 28.1707 37.521 28.1209 37.989 28.1209V28.9573C37.5708 29.8834 37.7799 30.9588 38.5068 31.6659C39.1043 32.2832 39.9407 32.6118 40.7971 32.5521C41.2751 32.582 41.7331 32.7214 42.1514 32.9703C43.2866 33.4981 44.1628 34.454 44.601 35.6191C45.0192 36.7742 44.9595 38.0488 44.4417 39.1541L42.6194 42.6393C41.7829 44.2625 40.1299 45.2981 38.2977 45.3479H38.1981C37.2521 45.3479 36.4057 44.7703 36.0672 43.894C35.7385 43.1074 35.0315 42.5398 34.1951 42.3804C32.8807 42.2211 31.6857 43.1173 31.4766 44.4118ZM38.3973 48.3053C36.3758 48.3253 34.3942 47.7278 32.7313 46.5926C32.7313 46.5328 32.7412 46.4831 32.7811 46.4333L33.04 44.611C33.1196 44.1728 33.5379 43.8741 33.976 43.9339C34.2648 43.9737 34.5038 44.1728 34.6034 44.4517C35.1909 45.9155 36.6148 46.8814 38.1882 46.9013H38.2877C40.7174 46.8714 42.9181 45.4873 44.0135 43.3165L45.8358 39.8312C46.5228 38.3276 46.6025 36.6049 46.0449 35.0415C45.5071 33.4483 44.3122 32.1637 42.7687 31.5065C42.1414 31.1281 41.4244 30.929 40.6876 30.9389C40.2893 30.9987 39.881 30.8593 39.5922 30.5705C39.3333 30.3116 39.3333 29.734 39.4329 29.0569L39.5325 28.1209C44.2126 28.5889 48.5841 32.9604 48.5841 38.1583C48.5642 43.7745 44.0035 48.3053 38.3973 48.3053Z" fill="#083863"/>
</g>
</g>
<defs>
<clipPath id="clip0_114_217">
<rect width="50" height="50" fill="white"/>
</clipPath>
</defs>
</svg>
