<svg width="24" height="24" viewBox="0 0 24 24" fill="none" xmlns="http://www.w3.org/2000/svg">
<g id="001-hospital" clip-path="url(#clip0_213_5081)">
<g id="Group">
<path id="Vector" d="M23.7897 11.692L13.5867 1.66404C12.7118 0.804027 11.2882 0.804074 10.4133 1.664L0.210284 11.692C-0.0667 11.9643 -0.0705438 12.4094 0.201659 12.6864C0.473862 12.9633 0.919034 12.9672 1.19597 12.695L1.98999 11.9146V19.9207C1.98999 21.6081 3.36286 22.981 5.05032 22.981H18.9497C20.6371 22.981 22.01 21.6081 22.01 19.9207V11.9146L22.804 12.695C22.941 12.8295 23.1189 12.8967 23.2968 12.8967C23.4788 12.8967 23.6607 12.8264 23.7983 12.6864C24.0705 12.4094 24.0667 11.9643 23.7897 11.692ZM20.6037 19.9207C20.6037 20.8327 19.8617 21.5748 18.9496 21.5748H5.05032C4.13827 21.5748 3.39624 20.8327 3.39624 19.9207V10.5325L11.3991 2.66693C11.4819 2.58551 11.5778 2.52443 11.6801 2.4837C11.9615 2.37176 12.2919 2.41371 12.5365 2.60965C12.5587 2.62746 12.5802 2.64654 12.6009 2.66693L20.6038 10.5324V19.9207H20.6037Z" fill="#00C692"/>
<path id="Vector_2" d="M9.88736 9.23352V11.4962H7.62451C7.2362 11.4962 6.92139 11.811 6.92139 12.1993V15.0056C6.92139 15.3939 7.2362 15.7087 7.62451 15.7087H9.88736V17.9713C9.88736 18.3597 10.2022 18.6745 10.5905 18.6745H13.3967C13.785 18.6745 14.0998 18.3597 14.0998 17.9713V15.7087H16.3623C16.7506 15.7087 17.0654 15.3939 17.0654 15.0056V12.1993C17.0654 11.811 16.7506 11.4962 16.3623 11.4962H14.0998V9.23352C14.0998 8.84521 13.785 8.5304 13.3967 8.5304H10.5905C10.2022 8.5304 9.88736 8.84521 9.88736 9.23352ZM11.2936 12.1993V9.93665H12.6936V12.1993C12.6936 12.5877 13.0084 12.9025 13.3967 12.9025H15.6592V14.3024H13.3967C13.0084 14.3024 12.6936 14.6173 12.6936 15.0056V17.2682H11.2936V15.0056C11.2936 14.6173 10.9788 14.3024 10.5905 14.3024H8.32764V12.9025H10.5905C10.9788 12.9025 11.2936 12.5877 11.2936 12.1993Z" fill="#00C692"/>
</g>
</g>
<defs>
<clipPath id="clip0_213_5081">
<rect width="24" height="24" fill="white"/>
</clipPath>
</defs>
</svg>
