<svg width="16" height="16" viewBox="0 0 16 16" fill="none" xmlns="http://www.w3.org/2000/svg">
<g id="010-location-1">
<g id="Group">
<g id="ARC_116_">
<g id="Group_2">
<path id="Vector" d="M4.10156 10.1232C3.95506 10.1232 3.80981 10.059 3.71081 9.93574C2.36956 8.26049 2.12681 5.93974 3.09231 4.02349C3.21631 3.77724 3.51656 3.67724 3.76406 3.80199C4.01056 3.92624 4.10981 4.22699 3.98556 4.47349C3.19556 6.04124 3.39431 7.94024 4.49156 9.31074C4.66406 9.52624 4.62931 9.84099 4.41356 10.0135C4.32156 10.0872 4.21131 10.1232 4.10156 10.1232Z" fill="#0058C1"/>
</g>
</g>
<g id="LINE_218_">
<g id="Group_3">
<path id="Vector_2" d="M4.40351 3.52924C4.27451 3.52924 4.14576 3.47974 4.04776 3.38074C3.85376 3.18424 3.85551 2.86774 4.05201 2.67374L4.22976 2.49799C4.42626 2.30399 4.74276 2.30549 4.93701 2.50224C5.13101 2.69874 5.12926 3.01524 4.93276 3.20924L4.75501 3.38499C4.65776 3.48124 4.53051 3.52924 4.40351 3.52924Z" fill="#0058C1"/>
</g>
</g>
<g id="ARC_117_">
<g id="Group_4">
<path id="Vector_3" d="M11.9073 10.1232C11.7978 10.1232 11.6873 10.0872 11.595 10.0135C11.3795 9.841 11.3445 9.52625 11.517 9.31075C12.7293 7.797 12.8248 5.614 11.7503 4.00225C10.5263 2.16625 8.01426 1.48625 6.03051 2.45425C5.78201 2.57525 5.48326 2.472 5.36201 2.22425C5.24076 1.976 5.34376 1.67675 5.59201 1.5555C8.05626 0.352498 11.0613 1.16625 12.5823 3.44725C13.896 5.4175 13.779 8.0855 12.2978 9.9355C12.199 10.059 12.0538 10.1232 11.9073 10.1232Z" fill="#0058C1"/>
</g>
</g>
<g id="CIRCLE_12_">
<g id="Group_5">
<path id="Vector_4" d="M8.00883 9.49224C8.00858 9.49224 8.00858 9.49224 8.00883 9.49224C7.27258 9.49224 6.56808 9.22974 6.02533 8.75299C4.99383 7.84699 4.71008 6.30999 5.35033 5.09824C5.86358 4.12724 6.91083 3.49974 8.01858 3.49974C8.26108 3.49974 8.50283 3.52949 8.73658 3.58824C10.0508 3.91799 11.0043 5.14174 11.0043 6.49824C11.0043 7.46899 10.5308 8.38424 9.73833 8.94649C9.23483 9.30349 8.63708 9.49224 8.00883 9.49224ZM8.01858 4.49974C7.27708 4.49974 6.57658 4.91799 6.23458 5.56549C5.80783 6.37274 5.99758 7.39749 6.68533 8.00174C7.04533 8.31799 7.51533 8.49224 8.00858 8.49224C8.42833 8.49224 8.82658 8.36724 9.15983 8.13099C9.68883 7.75599 10.0046 7.14574 10.0046 6.49824C10.0046 5.59399 9.36908 4.77799 8.49333 4.55824C8.33883 4.51949 8.17908 4.49974 8.01858 4.49974Z" fill="#0058C1"/>
</g>
</g>
<g id="LINE_529_">
<g id="Group_6">
<path id="Vector_5" d="M8.00434 14.9982C7.89484 14.9982 7.78434 14.9622 7.69209 14.8885C7.47659 14.716 7.44159 14.4012 7.61409 14.1857L11.5171 9.31075C11.6898 9.095 12.0041 9.0605 12.2201 9.233C12.4356 9.4055 12.4706 9.72025 12.2981 9.93575L8.39509 14.8107C8.29609 14.934 8.15084 14.9982 8.00434 14.9982Z" fill="#0058C1"/>
</g>
</g>
<g id="LINE_530_">
<g id="Group_7">
<path id="Vector_6" d="M8.00484 14.9982C7.85834 14.9982 7.71309 14.934 7.61409 14.8107L3.71109 9.93575C3.53859 9.72025 3.57334 9.4055 3.78909 9.233C4.00434 9.0605 4.31909 9.095 4.49209 9.31075L8.39509 14.1857C8.56759 14.4012 8.53284 14.716 8.31709 14.8885C8.22459 14.9622 8.11434 14.9982 8.00484 14.9982Z" fill="#0058C1"/>
</g>
</g>
</g>
</g>
</svg>
