<svg width="17" height="18" viewBox="0 0 17 18" fill="none" xmlns="http://www.w3.org/2000/svg">
<g id="Group 350">
<path id="Vector" fill-rule="evenodd" clip-rule="evenodd" d="M7.91443 15.1332V16.0302C7.91443 16.7496 7.55591 17.3706 6.9329 17.7302C6.63316 17.9033 6.29862 17.9998 5.95177 18C5.6046 18.0002 5.27016 17.9035 4.97021 17.7302L0.981525 15.4274C0.358452 15.0677 0 14.4468 0 13.7273V1.96305C0 0.880557 0.880592 0 1.96305 0H10.7476C11.8301 0 12.7108 0.880487 12.7108 1.96305V4.44293C12.7108 4.79868 12.4219 5.08752 12.0662 5.08752C11.7103 5.08752 11.4217 4.79871 11.4217 4.44293V1.96305C11.4217 1.59134 11.1193 1.2889 10.7476 1.2889H3.05004L6.9329 3.53105C7.5557 3.8907 7.91443 4.51156 7.91443 5.23075V13.8441H10.7476C11.1192 13.8441 11.4217 13.5418 11.4217 13.1701V10.9962C11.4217 10.6402 11.7101 10.3516 12.0662 10.3516C12.4221 10.3516 12.7108 10.6403 12.7108 10.9962V13.1701C12.7108 14.2527 11.8301 15.1332 10.7476 15.1332H7.91443ZM13.8869 8.21101L13.177 8.92085C12.9253 9.17253 12.9254 9.58055 13.177 9.83227C13.2982 9.95349 13.4614 10.0208 13.6328 10.0208C13.8042 10.0208 13.9673 9.95366 14.0887 9.83227L15.8985 8.02215C16.1501 7.7705 16.1501 7.36269 15.8985 7.11104L14.0887 5.3012C13.8369 5.04948 13.4289 5.04959 13.1771 5.30117C12.9255 5.5526 12.9255 5.9608 13.1771 6.21231L13.8869 6.92197H9.13164C8.77555 6.92197 8.4872 7.21053 8.4872 7.56659C8.4872 7.92266 8.77558 8.21104 9.13164 8.21104H13.8869V8.21101Z" fill="#7D7D7D"/>
</g>
</svg>
