<svg width="16" height="16" viewBox="0 0 16 16" fill="none" xmlns="http://www.w3.org/2000/svg">
<g id="time (1) 1" clip-path="url(#clip0_282_5083)">
<g id="Layer 2">
<path id="Vector" d="M14.1634 11.2273C14.5316 11.2273 14.83 10.9289 14.83 10.5607C14.83 10.1925 14.5316 9.89401 14.1634 9.89401C13.7952 9.89401 13.4967 10.1925 13.4967 10.5607C13.4967 10.9289 13.7952 11.2273 14.1634 11.2273Z" fill="#0058C1"/>
<path id="Vector_2" d="M12.7094 13.3747C13.0776 13.3747 13.3761 13.0762 13.3761 12.708C13.3761 12.3398 13.0776 12.0413 12.7094 12.0413C12.3412 12.0413 12.0427 12.3398 12.0427 12.708C12.0427 13.0762 12.3412 13.3747 12.7094 13.3747Z" fill="#0058C1"/>
<path id="Vector_3" d="M14.6647 8.66933C15.0329 8.66933 15.3314 8.37086 15.3314 8.00267C15.3314 7.63448 15.0329 7.336 14.6647 7.336C14.2965 7.336 13.998 7.63448 13.998 8.00267C13.998 8.37086 14.2965 8.66933 14.6647 8.66933Z" fill="#0058C1"/>
<path id="Vector_4" d="M10.55 14.8313C10.9182 14.8313 11.2166 14.5329 11.2166 14.1647C11.2166 13.7965 10.9182 13.498 10.55 13.498C10.1818 13.498 9.8833 13.7965 9.8833 14.1647C9.8833 14.5329 10.1818 14.8313 10.55 14.8313Z" fill="#0058C1"/>
<path id="Vector_5" d="M8.00001 14C7.03982 14.0012 6.09338 13.7719 5.2402 13.3314C4.38701 12.8909 3.65201 12.252 3.09693 11.4685C2.54186 10.6851 2.18293 9.77979 2.0503 8.8288C1.91766 7.87782 2.0152 6.90889 2.33472 6.00342C2.65424 5.09795 3.1864 4.28239 3.8865 3.62526C4.58659 2.96812 5.43418 2.48861 6.35804 2.227C7.28191 1.96539 8.25506 1.92933 9.19575 2.12184C10.1364 2.31436 11.0172 2.72982 11.764 3.33334H10.6667C10.4899 3.33334 10.3203 3.40358 10.1953 3.5286C10.0702 3.65363 10 3.82319 10 4.00001C10 4.17682 10.0702 4.34639 10.1953 4.47141C10.3203 4.59643 10.4899 4.66667 10.6667 4.66667H13.3333C13.5102 4.66667 13.6797 4.59643 13.8047 4.47141C13.9298 4.34639 14 4.17682 14 4.00001V1.33334C14 1.15653 13.9298 0.986958 13.8047 0.861934C13.6797 0.73691 13.5102 0.666672 13.3333 0.666672C13.1565 0.666672 12.987 0.73691 12.8619 0.861934C12.7369 0.986958 12.6667 1.15653 12.6667 1.33334V2.35401C11.7601 1.6045 10.6865 1.08419 9.53645 0.837005C8.38643 0.589824 7.19382 0.62304 6.05935 0.933847C4.92487 1.24465 3.88186 1.82392 3.0184 2.62272C2.15495 3.42152 1.49642 4.41639 1.09844 5.5233C0.700453 6.63021 0.574706 7.81664 0.731816 8.98238C0.888926 10.1481 1.32428 11.2589 2.0011 12.221C2.67793 13.183 3.57634 13.9681 4.62046 14.5098C5.66458 15.0515 6.82373 15.334 8.00001 15.3333C8.17682 15.3333 8.34639 15.2631 8.47141 15.1381C8.59644 15.0131 8.66668 14.8435 8.66668 14.6667C8.66668 14.4899 8.59644 14.3203 8.47141 14.1953C8.34639 14.0702 8.17682 14 8.00001 14Z" fill="#0058C1"/>
<path id="Vector_6" d="M10.4714 10.4713C10.5964 10.3463 10.6666 10.1768 10.6666 10C10.6666 9.82323 10.5964 9.6537 10.4714 9.52868L8.66671 7.72401V4.00001C8.66671 3.8232 8.59647 3.65363 8.47145 3.52861C8.34642 3.40358 8.17685 3.33334 8.00004 3.33334C7.82323 3.33334 7.65366 3.40358 7.52864 3.52861C7.40361 3.65363 7.33337 3.8232 7.33337 4.00001V8.00001C7.33341 8.17681 7.40367 8.34635 7.52871 8.47134L9.52871 10.4713C9.65373 10.5963 9.82326 10.6665 10 10.6665C10.1768 10.6665 10.3464 10.5963 10.4714 10.4713Z" fill="#0058C1"/>
</g>
</g>
<defs>
<clipPath id="clip0_282_5083">
<rect width="16" height="16" fill="white"/>
</clipPath>
</defs>
</svg>
