<svg width="18" height="18" viewBox="0 0 18 24" fill="none" xmlns="http://www.w3.org/2000/svg">
<circle cx="9" cy="11" r="9" fill="#FF6533"/>
<path d="M9.82031 5.625L9.71875 13.7891H8.41406L8.30469 5.625H9.82031ZM8.25781 16.2734C8.25781 16.0391 8.32812 15.8411 8.46875 15.6797C8.61458 15.5182 8.82812 15.4375 9.10938 15.4375C9.38542 15.4375 9.59635 15.5182 9.74219 15.6797C9.89323 15.8411 9.96875 16.0391 9.96875 16.2734C9.96875 16.4974 9.89323 16.6901 9.74219 16.8516C9.59635 17.013 9.38542 17.0938 9.10938 17.0938C8.82812 17.0938 8.61458 17.013 8.46875 16.8516C8.32812 16.6901 8.25781 16.4974 8.25781 16.2734Z" fill="white"/>
</svg>
