<svg width="25" height="25" viewBox="0 0 25 25" fill="none" xmlns="http://www.w3.org/2000/svg">
<path id="Union" fill-rule="evenodd" clip-rule="evenodd" d="M23.9407 1.31371C23.1596 0.53266 21.8933 0.53266 21.1122 1.31371L12.627 9.79899L4.14167 1.31371C3.36062 0.532658 2.09429 0.532658 1.31325 1.31371C0.532197 2.09476 0.532197 3.36108 1.31325 4.14213L9.79853 12.6274L1.31324 21.1127C0.532196 21.8937 0.532196 23.1601 1.31324 23.9411C2.09429 24.7222 3.36062 24.7222 4.14167 23.9411L12.627 15.4558L21.1122 23.9411C21.8933 24.7222 23.1596 24.7222 23.9407 23.9411C24.7217 23.1601 24.7217 21.8937 23.9407 21.1127L15.4554 12.6274L23.9407 4.14214C24.7217 3.36109 24.7217 2.09476 23.9407 1.31371Z" fill="#7D7D7D"/>
</svg>
