<svg width="18" height="18" viewBox="0 0 18 18" fill="none" xmlns="http://www.w3.org/2000/svg">
<g id="002-user-1" clip-path="url(#clip0_302_4710)">
<g id="Group">
<g id="Group_2">
<path id="Vector" d="M9.0016 0C6.43016 0 4.32812 2.10203 4.32812 4.67348C4.32812 7.24492 6.43016 9.34695 9.0016 9.34695C11.573 9.34695 13.6751 7.24492 13.6751 4.67348C13.6751 2.10203 11.573 0 9.0016 0Z" fill="#7D7D7D"/>
</g>
</g>
<g id="Group_3">
<g id="Group_4">
<path id="Vector_2" d="M17.0231 13.0816C16.9006 12.7755 16.7374 12.4898 16.5537 12.2245C15.6149 10.8367 14.1659 9.91836 12.5333 9.69387C12.3292 9.67348 12.1047 9.71426 11.9415 9.83672C11.0843 10.4694 10.0639 10.7959 9.00267 10.7959C7.94142 10.7959 6.92103 10.4694 6.06388 9.83672C5.9006 9.71426 5.6761 9.65305 5.47204 9.69387C3.83939 9.91836 2.37001 10.8367 1.45165 12.2245C1.26798 12.4898 1.1047 12.7959 0.982276 13.0816C0.921065 13.2041 0.941456 13.347 1.00267 13.4694C1.16595 13.7551 1.37001 14.0409 1.55368 14.2857C1.83939 14.6735 2.14552 15.0204 2.49247 15.347C2.77817 15.6327 3.1047 15.898 3.43126 16.1633C5.04349 17.3674 6.98228 18 8.98228 18C10.9823 18 12.9211 17.3673 14.5333 16.1633C14.8598 15.9184 15.1863 15.6327 15.4721 15.347C15.7986 15.0204 16.1251 14.6735 16.4109 14.2857C16.6149 14.0204 16.7986 13.7551 16.9619 13.4694C17.0639 13.347 17.0843 13.2041 17.0231 13.0816Z" fill="#7D7D7D"/>
</g>
</g>
</g>
<defs>
<clipPath id="clip0_302_4710">
<rect width="18" height="18" fill="white"/>
</clipPath>
</defs>
</svg>
