<svg width="16" height="16" viewBox="0 0 16 16" fill="none" xmlns="http://www.w3.org/2000/svg">
<g clip-path="url(#clip0_344_7728)">
<path d="M13.548 9.62207C12.5986 8.67273 11.4491 7.99658 10.1948 7.63184C11.3657 6.90295 12.1469 5.60425 12.1469 4.12634C12.1469 1.85107 10.2958 0 8.02039 0C5.74512 0 3.89404 1.85107 3.89404 4.12646C3.89404 5.5957 4.66602 6.88782 5.82556 7.61902C4.55396 7.98059 3.38855 8.66162 2.42798 9.62207C0.942871 11.1072 0.125 13.0818 0.125 15.182V16H15.851V15.182C15.851 13.0818 15.0331 11.1072 13.548 9.62207ZM12.1741 12.6538C12.1741 12.8826 11.9879 13.0687 11.759 13.0687C11.5303 13.0687 11.344 12.8826 11.344 12.6538C11.344 12.4249 11.5303 12.2388 11.759 12.2388C11.9879 12.2388 12.1741 12.4249 12.1741 12.6538ZM7.98804 10.2657L6.64758 8.38245C7.08447 8.29724 7.53284 8.25342 7.98804 8.25342C8.44312 8.25342 8.89148 8.29724 9.32849 8.38245L7.98804 10.2657ZM4.82837 4.12646C4.82837 2.36633 6.26038 0.934326 8.02039 0.934326C9.78052 0.934326 11.2125 2.36633 11.2125 4.12646C11.2125 5.88647 9.78052 7.31848 8.02039 7.31848C6.26038 7.31848 4.82837 5.88647 4.82837 4.12646ZM3.08875 10.2827C3.38306 9.98853 3.69922 9.72424 4.03345 9.49097V11.2502C2.96326 11.4489 2.15015 12.3888 2.15015 13.5156V14.3873H3.08447V13.5156C3.08447 12.76 3.69922 12.1453 4.45496 12.1453C5.21057 12.1453 5.82532 12.76 5.82532 13.5156V14.3376H6.75964V13.5156C6.75964 12.4211 5.99255 11.5031 4.96777 11.2692V8.94287C5.20154 8.82947 5.44128 8.72949 5.6864 8.64343L7.52075 11.2206V15.0656H1.0603C1.08997 13.2585 1.80762 11.564 3.08875 10.2827ZM8.4552 15.0657V11.2207L10.2896 8.64343C10.6416 8.76709 10.9829 8.91943 11.3108 9.099V11.3812C10.7865 11.5665 10.4097 12.0669 10.4097 12.6538C10.4097 13.3978 11.015 14.0032 11.759 14.0032C12.5032 14.0032 13.1085 13.3978 13.1085 12.6538C13.1085 12.0811 12.7496 11.5908 12.2451 11.3953V9.71411C12.4689 9.88904 12.6834 10.0787 12.8873 10.2827C14.1685 11.564 14.8861 13.2584 14.9158 15.0657H8.4552Z" fill="#0058C1"/>
<path d="M9.56033 13.5725C9.31594 13.5725 9.08193 13.7874 9.09316 14.0397C9.10451 14.2928 9.29848 14.5068 9.56033 14.5068C9.80471 14.5068 10.0388 14.292 10.0275 14.0397C10.0161 13.7866 9.82229 13.5725 9.56033 13.5725Z" fill="#0058C1"/>
</g>
<defs>
<clipPath id="clip0_344_7728">
<rect width="16" height="16" fill="white"/>
</clipPath>
</defs>
</svg>
