<svg width="18" height="19" viewBox="0 0 18 19" fill="none" xmlns="http://www.w3.org/2000/svg">
<path d="M6.7498 14.11C6.50128 14.11 6.2998 14.3115 6.2998 14.56C6.2998 14.8085 6.50128 15.01 6.7498 15.01H11.2498C11.4983 15.01 11.6998 14.8085 11.6998 14.56C11.6998 14.3115 11.4983 14.11 11.2498 14.11H6.7498Z" fill="#00C692"/>
<path fill-rule="evenodd" clip-rule="evenodd" d="M10.9519 0.677619C9.80748 -0.225873 8.19252 -0.225873 7.04812 0.677619L1.19812 5.29604C0.441459 5.89341 0 6.80437 0 7.76841V15.01C0 16.7497 1.4103 18.16 3.15 18.16H14.85C16.5897 18.16 18 16.7497 18 15.01V7.76841C18 6.80437 17.5585 5.89341 16.8019 5.29604L10.9519 0.677619ZM7.60581 1.38401C8.42328 0.738657 9.57672 0.738657 10.3942 1.38401L16.2442 6.00243C16.7846 6.42912 17.1 7.07981 17.1 7.76841V15.01C17.1 16.2526 16.0926 17.26 14.85 17.26H3.15C1.90736 17.26 0.9 16.2526 0.9 15.01V7.76841C0.9 7.07981 1.21532 6.42912 1.7558 6.00243L7.60581 1.38401Z" fill="#00C692"/>
</svg>
