<svg width="40" height="40" viewBox="0 0 40 40" fill="none" xmlns="http://www.w3.org/2000/svg">
<g id="007-science">
<g id="chemical">
<path id="Vector" d="M27.5 4.16669H12.5C10.2899 4.16669 8.17025 5.04466 6.60745 6.60746C5.04465 8.17027 4.16667 10.2899 4.16667 12.5V27.5C4.16667 29.7102 5.04465 31.8298 6.60745 33.3926C8.17025 34.9554 10.2899 35.8334 12.5 35.8334H27.5C29.7101 35.8334 31.8298 34.9554 33.3926 33.3926C34.9554 31.8298 35.8333 29.7102 35.8333 27.5V12.5C35.8333 10.2899 34.9554 8.17027 33.3926 6.60746C31.8298 5.04466 29.7101 4.16669 27.5 4.16669ZM9.00467 9.16669C11.168 9.16713 15.4743 9.1664 17.6619 9.16669C17.8801 9.17095 18.0879 9.26063 18.2407 9.41645C18.3935 9.57228 18.4791 9.78182 18.4791 10.0001C18.4791 10.2183 18.3935 10.4278 18.2406 10.5836C18.0878 10.7395 17.88 10.8291 17.6618 10.8334H16.6666V12.5H14.9999V10.8334H11.6666V12.5H9.99991V10.8334H9.00462C8.78642 10.8291 8.5786 10.7394 8.42579 10.5836C8.27299 10.4278 8.18739 10.2182 8.1874 10C8.18741 9.78175 8.27301 9.57222 8.42583 9.41641C8.57864 9.26059 8.78647 9.17093 9.00467 9.16669ZM29.9999 20.8333C29.89 25.2292 23.4437 25.2297 23.3332 20.8334V16.6667H20.8316V29.1667H26.6665C26.8847 29.1709 27.0925 29.2606 27.2453 29.4164C27.3981 29.5722 27.4838 29.7818 27.4838 30C27.4838 30.2182 27.3982 30.4278 27.2454 30.5836C27.0926 30.7394 26.8847 30.8291 26.6665 30.8334H13.3333C13.1151 30.8291 12.9073 30.7394 12.7544 30.5836C12.6016 30.4278 12.516 30.2183 12.516 30C12.516 29.7818 12.6016 29.5723 12.7544 29.4164C12.9072 29.2606 13.115 29.1709 13.3332 29.1667H19.1649V16.6667H16.6666V20.8333C16.5567 25.2292 10.1103 25.2297 9.99991 20.8334V14.1667H16.6666V15H23.3332V14.1667H29.9999V20.8333ZM30.9952 10.8334H29.9999V12.5H28.3332V10.8334H24.9999V12.5H23.3332V10.8334H22.338C22.1198 10.8291 21.912 10.7394 21.7592 10.5836C21.6063 10.4278 21.5207 10.2183 21.5207 10C21.5207 9.7818 21.6063 9.57226 21.7591 9.41644C21.9119 9.26062 22.1198 9.17095 22.338 9.16669C24.5738 9.16674 28.7595 9.16664 30.9952 9.16669C31.2134 9.17094 31.4212 9.26061 31.574 9.41643C31.7268 9.57224 31.8124 9.78178 31.8124 10C31.8124 10.2183 31.7268 10.4278 31.574 10.5836C31.4212 10.7394 31.2134 10.8291 30.9952 10.8334Z" fill="#00C692"/>
</g>
</g>
</svg>
