<svg width="16" height="16" viewBox="0 0 16 16" fill="none" xmlns="http://www.w3.org/2000/svg">
<g id="Group">
<g id="Group_2">
<path id="Vector" d="M15.4282 0C15.3378 0 15.2507 0.0200888 15.1737 0.0602663L10.8412 2.22651L5.94628 0.0502219C5.93958 0.0468738 5.92953 0.0468738 5.91949 0.0435257C5.89605 0.0368294 5.87597 0.026785 5.85253 0.0234369C5.82909 0.0167406 5.80565 0.0133925 5.78222 0.0100444C5.73534 0.00669626 5.68847 0.00669626 5.6416 0.0100444C5.61816 0.0133925 5.59472 0.0167406 5.57128 0.0234369C5.54785 0.0301332 5.52441 0.0368294 5.50432 0.0435257C5.49428 0.0468738 5.48758 0.0468738 5.47754 0.0502219L0.338161 2.33365C0.133925 2.42739 0 2.63163 0 2.85595V15.4282C0 15.6224 0.0970957 15.8032 0.261154 15.907C0.421864 16.0141 0.6261 16.0275 0.803551 15.9505L5.71525 13.7675L10.627 15.9505C10.637 15.9538 10.6437 15.9505 10.6537 15.9572C10.791 16.0174 10.9517 16.0141 11.0857 15.9471C11.0957 15.9438 11.1057 15.9471 11.1158 15.9404L15.686 13.6537C15.8802 13.5566 16.0007 13.359 16.0007 13.1414V0.57253C16.0007 0.254458 15.7429 0 15.4282 0ZM5.14272 12.7698L1.14171 14.5476V3.2276L5.14272 1.44974V12.7698ZM10.2854 14.5476L6.28444 12.7698V1.44974L10.2854 3.2276V14.5476ZM14.8556 12.7899L11.4272 14.5041V3.21086L14.8556 1.49661V12.7899Z" fill="#00C692"/>
</g>
</g>
</svg>
