<svg width="24" height="24" viewBox="0 0 24 24" fill="none" xmlns="http://www.w3.org/2000/svg">
<path id="Vector" d="M23.5832 21.5722L18.9697 16.9596C20.3679 15.1296 21.1348 12.9099 21.1351 10.5677C21.1351 7.74502 20.0355 5.09112 18.0389 3.09523C16.0425 1.09934 13.3884 0 10.5648 0C7.7416 0 5.08715 1.09934 3.09084 3.09523C-1.03028 7.21583 -1.03028 13.9202 3.09084 18.0401C5.08715 20.0363 7.7416 21.1357 10.5648 21.1357C12.9076 21.1354 15.1277 20.3687 16.9581 18.9708L21.5716 23.5833C21.8491 23.8611 22.2135 24 22.5774 24C22.9414 24 23.3057 23.8611 23.5832 23.5833C24.1389 23.0281 24.1389 22.1274 23.5832 21.5722ZM5.10243 16.0289C2.0906 13.0177 2.09095 8.11794 5.10243 5.1064C6.56146 3.64802 8.50151 2.84453 10.5648 2.84453C12.6285 2.84453 14.5682 3.64802 16.0273 5.1064C17.4863 6.56512 18.29 8.50476 18.29 10.5677C18.29 12.6309 17.4863 14.5702 16.0273 16.0289C14.5682 17.4877 12.6285 18.2912 10.5648 18.2912C8.50151 18.2912 6.56146 17.4877 5.10243 16.0289Z" fill="white"/>
</svg>
